<?plantuml 1.2026.2?><svg xmlns="http://www.w3.org/2000/svg" xmlns:xlink="http://www.w3.org/1999/xlink" contentStyleType="text/css" data-diagram-type="CLASS" height="743px" preserveAspectRatio="none" style="width:1679px;height:743px;background:#FFFFFF;" version="1.1" viewBox="0 0 1679 743" width="1679px" zoomAndPan="magnify"><title>@web4x/persistence 0.3.23.0 &#8212; Scenario Storage
Dual Platform: Node.js (filesystem) + Browser (IndexedDB)
Depends on: @web4x/ucp</title><defs/><g><g class="title" data-source-line="8"><text fill="#000000" font-family="'Segoe UI'" font-size="22" font-weight="bold" lengthAdjust="spacing" textLength="557.1436" x="556.5398" y="36.2695">@web4x/persistence 0.3.23.0 &#8212; Scenario Storage</text><text fill="#000000" font-family="'Segoe UI'" font-size="22" font-weight="bold" lengthAdjust="spacing" textLength="662.0303" x="504.0964" y="62.1797">Dual Platform: Node.js (filesystem) + Browser (IndexedDB)</text><text fill="#000000" font-family="'Segoe UI'" font-size="22" font-weight="bold" lengthAdjust="spacing" textLength="293.7236" x="688.2497" y="88.0898">Depends on: @web4x/ucp</text></g><!--cluster UCP--><g class="cluster" data-qualified-name="UCP" data-source-line="14" id="ent0002"><path d="M527.5,559.0605 L635.6035,559.0605 A3.75,3.75 0 0 1 638.1035,561.5605 L645.1035,575.6601 L1202.5,575.6601 A2.5,2.5 0 0 1 1205,578.1601 L1205,733.8905 A2.5,2.5 0 0 1 1202.5,736.3905 L527.5,736.3905 A2.5,2.5 0 0 1 525,733.8905 L525,561.5605 A2.5,2.5 0 0 1 527.5,559.0605" fill="#EEEEEE" style="stroke:#000000;stroke-width:1;"/><line style="stroke:#000000;stroke-width:1;" x1="525" x2="645.1035" y1="575.6601" y2="575.6601"/><text fill="#000000" font-family="'Segoe UI'" font-size="9" font-weight="bold" lengthAdjust="spacing" textLength="107.1035" x="529" y="569.7616">@web4x/ucp (external)</text></g><!--cluster L3--><g class="cluster" data-qualified-name="L3" data-source-line="42" id="ent0006"><path d="M13.5,576.7205 L191.5425,576.7205 A3.75,3.75 0 0 1 194.0425,579.2205 L201.0425,593.3201 L498.5,593.3201 A2.5,2.5 0 0 1 501,595.8201 L501,716.2205 A2.5,2.5 0 0 1 498.5,718.7205 L13.5,718.7205 A2.5,2.5 0 0 1 11,716.2205 L11,579.2205 A2.5,2.5 0 0 1 13.5,576.7205" fill="#F5F5F5" style="stroke:#000000;stroke-width:1;"/><line style="stroke:#000000;stroke-width:1;" x1="11" x2="201.0425" y1="593.3201" y2="593.3201"/><text fill="#000000" font-family="'Segoe UI'" font-size="9" font-weight="bold" lengthAdjust="spacing" textLength="177.0425" x="15" y="587.4216">Layer 3 &#8212; Interfaces &amp; Runtime Types</text></g><!--cluster L2_Node--><g class="cluster" data-qualified-name="L2_Node" data-source-line="71" id="ent0010"><path d="M811.5,109.7305 L971.6084,109.7305 A3.75,3.75 0 0 1 974.1084,112.2305 L981.1084,126.3301 L1145.5,126.3301 A2.5,2.5 0 0 1 1148,128.8301 L1148,524.5605 A2.5,2.5 0 0 1 1145.5,527.0605 L811.5,527.0605 A2.5,2.5 0 0 1 809,524.5605 L809,112.2305 A2.5,2.5 0 0 1 811.5,109.7305" fill="#E8F5E9" style="stroke:#000000;stroke-width:1;"/><line style="stroke:#000000;stroke-width:1;" x1="809" x2="981.1084" y1="126.3301" y2="126.3301"/><text fill="#000000" font-family="'Segoe UI'" font-size="9" font-weight="bold" lengthAdjust="spacing" textLength="159.1084" x="813" y="120.4316">Layer 2 &#8212; Node.js Implementation</text></g><!--cluster L2_Browser--><g class="cluster" data-qualified-name="L2_Browser" data-source-line="105" id="ent0012"><path d="M439.5,144.2305 L603.124,144.2305 A3.75,3.75 0 0 1 605.624,146.7305 L612.624,160.8301 L774.5,160.8301 A2.5,2.5 0 0 1 777,163.3301 L777,490.0605 A2.5,2.5 0 0 1 774.5,492.5605 L439.5,492.5605 A2.5,2.5 0 0 1 437,490.0605 L437,146.7305 A2.5,2.5 0 0 1 439.5,144.2305" fill="#E3F2FD" style="stroke:#000000;stroke-width:1;"/><line style="stroke:#000000;stroke-width:1;" x1="437" x2="612.624" y1="160.8301" y2="160.8301"/><text fill="#000000" font-family="'Segoe UI'" font-size="9" font-weight="bold" lengthAdjust="spacing" textLength="162.624" x="441" y="154.9316">Layer 2 &#8212; Browser Implementation</text></g><!--class ExtPM--><g class="entity" data-qualified-name="UCP.ExtPM" data-source-line="15" id="ent0003"><rect fill="#FFFFFF" height="132.3345" rx="2.5" ry="2.5" style="stroke:#000000;stroke-width:1;" width="245.9077" x="541.05" y="588.0605"/><ellipse cx="616.9414" cy="603.8293" fill="#FFFFFF" rx="9" ry="9" style="stroke:#000000;stroke-width:1;"/><path d="M616.8984,601.4548 L616.2875,604.1398 L617.5136,604.1398 Z M616.1074,600.2682 L617.6938,600.2682 L619.4648,606.8293 L618.1684,606.8293 L617.7641,605.2077 L616.0283,605.2077 L615.6328,606.8293 L614.3364,606.8293 Z " fill="#000000"/><text fill="#000000" font-family="Verdana" font-size="9" font-style="italic" lengthAdjust="spacing" textLength="61.2334" x="647.1372" y="602.1088">&#171;JsInterface&#187;</text><text fill="#000000" font-family="'Segoe UI'" font-size="9" font-style="italic" lengthAdjust="spacing" textLength="86.625" x="634.4414" y="612.6996">PersistenceManager</text><line style="stroke:#000000;stroke-width:1;" x1="542.05" x2="785.9577" y1="619.5981" y2="619.5981"/><line style="stroke:#000000;stroke-width:1;" x1="542.05" x2="785.9577" y1="627.5981" y2="627.5981"/><text fill="#000000" font-family="'Segoe UI'" font-size="9" font-style="italic" lengthAdjust="spacing" textLength="233.9077" x="547.05" y="640.2992">+scenarioSave(uuid, scenario, paths): Promise&lt;void&gt;</text><text fill="#000000" font-family="'Segoe UI'" font-size="9" font-style="italic" lengthAdjust="spacing" textLength="181.6216" x="547.05" y="650.8988">+scenarioLoad(uuid): Promise&lt;Scenario&gt;</text><text fill="#000000" font-family="'Segoe UI'" font-size="9" font-style="italic" lengthAdjust="spacing" textLength="190.4019" x="547.05" y="661.4985">+scenarioFind(query): Promise&lt;Scenario[]&gt;</text><text fill="#000000" font-family="'Segoe UI'" font-size="9" font-style="italic" lengthAdjust="spacing" textLength="214.4355" x="547.05" y="672.0981">+scenarioDelete(uuid, rmLinks?): Promise&lt;void&gt;</text><text fill="#000000" font-family="'Segoe UI'" font-size="9" font-style="italic" lengthAdjust="spacing" textLength="184.2539" x="547.05" y="682.6977">+scenarioExists(uuid): Promise&lt;boolean&gt;</text><text fill="#000000" font-family="'Segoe UI'" font-size="9" font-style="italic" lengthAdjust="spacing" textLength="146.6675" x="547.05" y="693.2973">+typePathBuild(comp, ver): string</text><text fill="#000000" font-family="'Segoe UI'" font-size="9" font-style="italic" lengthAdjust="spacing" textLength="213.4028" x="547.05" y="703.8969">+domainPathBuild(parts, host, comp, ver): string</text><text fill="#000000" font-family="'Segoe UI'" font-size="9" font-style="italic" lengthAdjust="spacing" textLength="134.9604" x="547.05" y="714.4965">+capabilityPathBuild(...): string</text></g><!--class ExtSTG--><g class="entity" data-qualified-name="UCP.ExtSTG" data-source-line="26" id="ent0004"><rect fill="#FFFFFF" height="68.7368" rx="2.5" ry="2.5" style="stroke:#000000;stroke-width:1;" width="195.397" x="822.3" y="619.8505"/><ellipse cx="849.2621" cy="635.6193" fill="#FFFFFF" rx="9" ry="9" style="stroke:#000000;stroke-width:1;"/><path d="M849.2191,633.2448 L848.6083,635.9298 L849.8344,635.9298 Z M848.4281,632.0582 L850.0145,632.0582 L851.7855,638.6193 L850.4891,638.6193 L850.0848,636.9977 L848.349,636.9977 L847.9535,638.6193 L846.6571,638.6193 Z " fill="#000000"/><text fill="#000000" font-family="Verdana" font-size="9" font-style="italic" lengthAdjust="spacing" textLength="140.3701" x="862.3648" y="633.8988">&#171;extends PersistenceManager&#187;</text><text fill="#000000" font-family="'Segoe UI'" font-size="9" font-style="italic" lengthAdjust="spacing" textLength="33.0205" x="916.0396" y="644.4896">Storage</text><line style="stroke:#000000;stroke-width:1;" x1="823.3" x2="1016.697" y1="651.3881" y2="651.3881"/><line style="stroke:#000000;stroke-width:1;" x1="823.3" x2="1016.697" y1="659.3881" y2="659.3881"/><text fill="#000000" font-family="'Segoe UI'" font-size="9" font-style="italic" lengthAdjust="spacing" textLength="161.1343" x="828.3" y="672.0892">+init(scenario: StorageScenario): this</text><text fill="#000000" font-family="'Segoe UI'" font-size="9" font-style="italic" lengthAdjust="spacing" textLength="183.397" x="828.3" y="682.6888">+toScenario(): Promise&lt;StorageScenario&gt;</text></g><!--class ExtIOR--><g class="entity" data-qualified-name="UCP.ExtIOR" data-source-line="31" id="ent0005"><rect fill="#FFFFFF" height="75.7988" rx="2.5" ry="2.5" style="stroke:#000000;stroke-width:1;" width="136.4575" x="1052.77" y="616.3205"/><ellipse cx="1104.8381" cy="630.3205" fill="#FFFFFF" rx="9" ry="9" style="stroke:#000000;stroke-width:1;"/><path d="M1106.5886,633.1315 Q1106.281,633.2897 1105.9426,633.3688 Q1105.6042,633.4479 1105.2307,633.4479 Q1103.9035,633.4479 1103.2048,632.5734 Q1102.5061,631.6989 1102.5061,630.0465 Q1102.5061,628.3898 1103.2048,627.5153 Q1103.9035,626.6408 1105.2307,626.6408 Q1105.6042,626.6408 1105.947,626.7199 Q1106.2898,626.799 1106.5886,626.9572 L1106.5886,628.3986 Q1106.2546,628.091 1105.9404,627.9482 Q1105.6262,627.8053 1105.2922,627.8053 Q1104.5803,627.8053 1104.2178,628.37 Q1103.8552,628.9347 1103.8552,630.0465 Q1103.8552,631.154 1104.2178,631.7187 Q1104.5803,632.2834 1105.2922,632.2834 Q1105.6262,632.2834 1105.9404,632.1405 Q1106.2546,631.9977 1106.5886,631.6901 Z " fill="#000000"/><text fill="#000000" font-family="'Segoe UI'" font-size="9" lengthAdjust="spacing" textLength="15.2754" x="1122.3381" y="633.7218">IOR</text><rect fill="#FFFFFF" height="12.938" style="stroke:#000000;stroke-width:1;stroke-dasharray:2,2;" width="7.5459" x="1184.6816" y="613.3205"/><text fill="#000000" font-family="Verdana" font-size="9" font-style="italic" lengthAdjust="spacing" textLength="5.5459" x="1185.6816" y="623.3688">T</text><line style="stroke:#000000;stroke-width:1;" x1="1053.77" x2="1188.2275" y1="644.3205" y2="644.3205"/><line style="stroke:#000000;stroke-width:1;" x1="1053.77" x2="1188.2275" y1="652.3205" y2="652.3205"/><text fill="#000000" font-family="'Segoe UI'" font-size="9" lengthAdjust="spacing" textLength="119.5225" x="1058.77" y="665.0216">+initRemote(iorString): this</text><text fill="#000000" font-family="'Segoe UI'" font-size="9" lengthAdjust="spacing" textLength="104.5811" x="1058.77" y="675.6213">+resolve(): Promise&lt;T&gt;</text><text fill="#000000" font-family="'Segoe UI'" font-size="9" lengthAdjust="spacing" textLength="124.4575" x="1058.77" y="686.2209">+save(data): Promise&lt;void&gt;</text></g><!--class ISTM--><g class="entity" data-qualified-name="L3.ISTM" data-source-line="44" id="ent0007"><rect fill="#FFFFFF" height="96.998" rx="2.5" ry="2.5" style="stroke:#000000;stroke-width:1;" width="107.4448" x="27.28" y="605.7205"/><ellipse cx="49.2187" cy="619.7205" fill="#FFFFFF" rx="9" ry="9" style="stroke:#000000;stroke-width:1;"/><path d="M47.4746,617.802 L47.4746,616.6594 L51.3813,616.6594 L51.3813,617.802 L50.0761,617.802 L50.0761,622.0779 L51.3813,622.0779 L51.3813,623.2205 L47.4746,623.2205 L47.4746,622.0779 L48.7797,622.0779 L48.7797,617.802 Z " fill="#000000"/><text fill="#000000" font-family="'Segoe UI'" font-size="9" font-style="italic" lengthAdjust="spacing" textLength="59.5811" x="63.2051" y="623.1218">StorageModel</text><line style="stroke:#000000;stroke-width:1;" x1="28.28" x2="133.7248" y1="633.7205" y2="633.7205"/><text fill="#000000" font-family="'Segoe UI'" font-size="9" lengthAdjust="spacing" textLength="57.7222" x="33.28" y="646.4216">+uuid: string</text><text fill="#000000" font-family="'Segoe UI'" font-size="9" lengthAdjust="spacing" textLength="89.0024" x="33.28" y="657.0213">+projectRoot: string</text><text fill="#000000" font-family="'Segoe UI'" font-size="9" lengthAdjust="spacing" textLength="95.4448" x="33.28" y="667.6209">+indexBaseDir: string</text><text fill="#000000" font-family="'Segoe UI'" font-size="9" lengthAdjust="spacing" textLength="80.1826" x="33.28" y="678.2205">+createdAt: string</text><text fill="#000000" font-family="'Segoe UI'" font-size="9" lengthAdjust="spacing" textLength="83.7905" x="33.28" y="688.8201">+updatedAt: string</text><line style="stroke:#000000;stroke-width:1;" x1="28.28" x2="133.7248" y1="694.7185" y2="694.7185"/></g><!--class ISTS--><g class="entity" data-qualified-name="L3.ISTS" data-source-line="52" id="ent0008"><rect fill="#FFFFFF" height="75.7988" rx="2.5" ry="2.5" style="stroke:#000000;stroke-width:1;" width="159.9814" x="170.01" y="616.3205"/><ellipse cx="211.3208" cy="630.3205" fill="#FFFFFF" rx="9" ry="9" style="stroke:#000000;stroke-width:1;"/><path d="M209.5767,628.402 L209.5767,627.2594 L213.4834,627.2594 L213.4834,628.402 L212.1782,628.402 L212.1782,632.6779 L213.4834,632.6779 L213.4834,633.8205 L209.5767,633.8205 L209.5767,632.6779 L210.8818,632.6779 L210.8818,628.402 Z " fill="#000000"/><text fill="#000000" font-family="'Segoe UI'" font-size="9" font-style="italic" lengthAdjust="spacing" textLength="69.8599" x="228.8208" y="633.7218">StorageScenario</text><line style="stroke:#000000;stroke-width:1;" x1="171.01" x2="328.9914" y1="644.3205" y2="644.3205"/><text fill="#000000" font-family="'Segoe UI'" font-size="9" lengthAdjust="spacing" textLength="147.9814" x="176.01" y="657.0216">+ior: { uuid, component, version }</text><text fill="#000000" font-family="'Segoe UI'" font-size="9" lengthAdjust="spacing" textLength="65.0303" x="176.01" y="667.6213">+owner: string</text><text fill="#000000" font-family="'Segoe UI'" font-size="9" lengthAdjust="spacing" textLength="99.6416" x="176.01" y="678.2209">+model: StorageModel</text><line style="stroke:#000000;stroke-width:1;" x1="171.01" x2="328.9914" y1="684.1193" y2="684.1193"/></g><!--class ISQ--><g class="entity" data-qualified-name="L3.ISQ" data-source-line="58" id="ent0009"><rect fill="#FFFFFF" height="96.998" rx="2.5" ry="2.5" style="stroke:#000000;stroke-width:1;" width="119.8901" x="365.05" y="605.7205"/><ellipse cx="391.1336" cy="619.7205" fill="#FFFFFF" rx="9" ry="9" style="stroke:#000000;stroke-width:1;"/><path d="M389.3895,617.802 L389.3895,616.6594 L393.2962,616.6594 L393.2962,617.802 L391.991,617.802 L391.991,622.0779 L393.2962,622.0779 L393.2962,623.2205 L389.3895,623.2205 L389.3895,622.0779 L390.6947,622.0779 L390.6947,617.802 Z " fill="#000000"/><text fill="#000000" font-family="'Segoe UI'" font-size="9" font-style="italic" lengthAdjust="spacing" textLength="62.8154" x="406.0411" y="623.1218">ScenarioQuery</text><line style="stroke:#000000;stroke-width:1;" x1="366.05" x2="483.9401" y1="633.7205" y2="633.7205"/><text fill="#000000" font-family="'Segoe UI'" font-size="9" lengthAdjust="spacing" textLength="91.3667" x="371.05" y="646.4216">+component?: string</text><text fill="#000000" font-family="'Segoe UI'" font-size="9" lengthAdjust="spacing" textLength="73.7402" x="371.05" y="657.0213">+version?: string</text><text fill="#000000" font-family="'Segoe UI'" font-size="9" lengthAdjust="spacing" textLength="74.8345" x="371.05" y="667.6209">+domain?: string</text><text fill="#000000" font-family="'Segoe UI'" font-size="9" lengthAdjust="spacing" textLength="104.9063" x="371.05" y="678.2205">+capabilityType?: string</text><text fill="#000000" font-family="'Segoe UI'" font-size="9" lengthAdjust="spacing" textLength="107.8901" x="371.05" y="688.8201">+capabilityValue?: string</text><line style="stroke:#000000;stroke-width:1;" x1="366.05" x2="483.9401" y1="694.7185" y2="694.7185"/></g><!--class UcpSt--><g class="entity" data-qualified-name="L2_Node.UcpSt" data-source-line="73" id="ent0011"><rect fill="#FFFFFF" height="356.3267" rx="2.5" ry="2.5" style="stroke:#000000;stroke-width:1;" width="272.02" x="832.99" y="146.7305"/><ellipse cx="925.1108" cy="162.4993" fill="#FFFFFF" rx="9" ry="9" style="stroke:#000000;stroke-width:1;"/><path d="M926.8613,165.3103 Q926.5537,165.4685 926.2153,165.5476 Q925.877,165.6267 925.5034,165.6267 Q924.1763,165.6267 923.4775,164.7522 Q922.7788,163.8777 922.7788,162.2253 Q922.7788,160.5686 923.4775,159.6941 Q924.1763,158.8196 925.5034,158.8196 Q925.877,158.8196 926.2197,158.8987 Q926.5625,158.9778 926.8613,159.136 L926.8613,160.5774 Q926.5274,160.2698 926.2131,160.127 Q925.8989,159.9841 925.565,159.9841 Q924.853,159.9841 924.4905,160.5488 Q924.1279,161.1135 924.1279,162.2253 Q924.1279,163.3328 924.4905,163.8975 Q924.853,164.4622 925.565,164.4622 Q925.8989,164.4622 926.2131,164.3193 Q926.5274,164.1765 926.8613,163.8689 Z " fill="#000000"/><text fill="#000000" font-family="Verdana" font-size="9" font-style="italic" lengthAdjust="spacing" textLength="84.2783" x="940.6108" y="160.7788">&#171;P6 + Filesystem&#187;</text><text fill="#000000" font-family="'Segoe UI'" font-size="9" lengthAdjust="spacing" textLength="49.5308" x="957.9846" y="171.3696">UcpStorage</text><line style="stroke:#000000;stroke-width:1;" x1="833.99" x2="1104.01" y1="178.2681" y2="178.2681"/><text fill="#000000" font-family="'Segoe UI'" font-size="9" lengthAdjust="spacing" textLength="97.6948" x="838.99" y="190.9692">-model: StorageModel</text><text fill="#000000" font-family="'Segoe UI'" font-size="9" lengthAdjust="spacing" text-decoration="underline" textLength="184.2539" x="838.99" y="216.1685">+start(): void  &#171;registers as Storage + PM&#187;</text><text fill="#000000" font-family="'Segoe UI'" font-size="9" lengthAdjust="spacing" textLength="63.1406" x="838.99" y="226.7681">+constructor()</text><text fill="#000000" font-family="'Segoe UI'" font-size="9" lengthAdjust="spacing" textLength="161.1343" x="838.99" y="237.3677">+init(scenario: StorageScenario): this</text><text fill="#000000" font-family="'Segoe UI'" font-size="9" lengthAdjust="spacing" textLength="183.397" x="838.99" y="247.9673">+toScenario(): Promise&lt;StorageScenario&gt;</text><line style="stroke:#000000;stroke-width:1;" x1="833.99" x2="942.189" y1="202.1675" y2="202.1675"/><text fill="#000000" font-family="'Segoe UI'" font-size="9" lengthAdjust="spacing" textLength="53.6221" x="942.189" y="205.0688">P6: Lifecycle</text><line style="stroke:#000000;stroke-width:1;" x1="995.811" x2="1104.01" y1="202.1675" y2="202.1675"/><text fill="#000000" font-family="'Segoe UI'" font-size="9" lengthAdjust="spacing" textLength="253.9072" x="838.99" y="273.1665">+scenarioSave&lt;T&gt;(uuid, scenario, paths): Promise&lt;void&gt;</text><text fill="#000000" font-family="'Segoe UI'" font-size="9" lengthAdjust="spacing" textLength="221.6206" x="838.99" y="283.7661">+scenarioLoad&lt;T&gt;(uuid): Promise&lt;Scenario&lt;T&gt;&gt;</text><text fill="#000000" font-family="'Segoe UI'" font-size="9" lengthAdjust="spacing" textLength="230.4009" x="838.99" y="294.3657">+scenarioFind&lt;T&gt;(query): Promise&lt;Scenario&lt;T&gt;[]&gt;</text><text fill="#000000" font-family="'Segoe UI'" font-size="9" lengthAdjust="spacing" textLength="214.4355" x="838.99" y="304.9653">+scenarioDelete(uuid, rmLinks?): Promise&lt;void&gt;</text><text fill="#000000" font-family="'Segoe UI'" font-size="9" lengthAdjust="spacing" textLength="184.2539" x="838.99" y="315.5649">+scenarioExists(uuid): Promise&lt;boolean&gt;</text><line style="stroke:#000000;stroke-width:1;" x1="833.99" x2="905.1914" y1="259.1655" y2="259.1655"/><text fill="#000000" font-family="'Segoe UI'" font-size="9" lengthAdjust="spacing" textLength="127.6172" x="905.1914" y="262.0669">PersistenceManager Interface</text><line style="stroke:#000000;stroke-width:1;" x1="1032.8086" x2="1104.01" y1="259.1655" y2="259.1655"/><text fill="#000000" font-family="'Segoe UI'" font-size="9" lengthAdjust="spacing" textLength="146.6675" x="838.99" y="340.7642">+typePathBuild(comp, ver): string</text><text fill="#000000" font-family="'Segoe UI'" font-size="9" lengthAdjust="spacing" textLength="213.4028" x="838.99" y="351.3638">+domainPathBuild(parts, host, comp, ver): string</text><text fill="#000000" font-family="'Segoe UI'" font-size="9" lengthAdjust="spacing" textLength="134.9604" x="838.99" y="361.9634">+capabilityPathBuild(...): string</text><line style="stroke:#000000;stroke-width:1;" x1="833.99" x2="940.6707" y1="326.7632" y2="326.7632"/><text fill="#000000" font-family="'Segoe UI'" font-size="9" lengthAdjust="spacing" textLength="56.6587" x="940.6707" y="329.6646">Path Builders</text><line style="stroke:#000000;stroke-width:1;" x1="997.3294" x2="1104.01" y1="326.7632" y2="326.7632"/><text fill="#000000" font-family="'Segoe UI'" font-size="9" lengthAdjust="spacing" textLength="207.5669" x="838.99" y="387.1626">+typeLinkPathGenerate(comp, ver, uuid): string</text><text fill="#000000" font-family="'Segoe UI'" font-size="9" lengthAdjust="spacing" textLength="260.02" x="838.99" y="397.7622">+domainLinkPathGenerate(domain, comp, ver, uuid): string</text><text fill="#000000" font-family="'Segoe UI'" font-size="9" lengthAdjust="spacing" textLength="234.5889" x="838.99" y="408.3618">+capabilityLinkPathGenerate(type, value, uuid): string</text><line style="stroke:#000000;stroke-width:1;" x1="833.99" x2="924.9251" y1="373.1616" y2="373.1616"/><text fill="#000000" font-family="'Segoe UI'" font-size="9" lengthAdjust="spacing" textLength="88.1499" x="924.9251" y="376.063">Legacy (Deprecated)</text><line style="stroke:#000000;stroke-width:1;" x1="1013.075" x2="1104.01" y1="373.1616" y2="373.1616"/><text fill="#000000" font-family="'Segoe UI'" font-size="9" lengthAdjust="spacing" textLength="166.4297" x="838.99" y="433.561">-uuidFolderPathGenerate(uuid): string</text><text fill="#000000" font-family="'Segoe UI'" font-size="9" lengthAdjust="spacing" textLength="156.3662" x="838.99" y="444.1606">-scenarioIndexPathGet(uuid): string</text><text fill="#000000" font-family="'Segoe UI'" font-size="9" lengthAdjust="spacing" textLength="247.9395" x="838.99" y="454.7603">-symlinkCreate(indexPath, symlinkPath): Promise&lt;void&gt;</text><text fill="#000000" font-family="'Segoe UI'" font-size="9" lengthAdjust="spacing" textLength="111.5859" x="838.99" y="465.3599">-projectRootFind(): string</text><text fill="#000000" font-family="'Segoe UI'" font-size="9" lengthAdjust="spacing" textLength="183.9814" x="838.99" y="475.9595">-scenarioFilesFind(dir): Promise&lt;string[]&gt;</text><text fill="#000000" font-family="'Segoe UI'" font-size="9" lengthAdjust="spacing" textLength="188.3452" x="838.99" y="486.5591">-componentVersionGet(): Promise&lt;string&gt;</text><text fill="#000000" font-family="'Segoe UI'" font-size="9" lengthAdjust="spacing" textLength="180.4966" x="838.99" y="497.1587">-componentNameGet(): Promise&lt;string&gt;</text><line style="stroke:#000000;stroke-width:1;" x1="833.99" x2="954.3662" y1="419.5601" y2="419.5601"/><text fill="#000000" font-family="'Segoe UI'" font-size="9" lengthAdjust="spacing" textLength="29.2676" x="954.3662" y="422.4614">Private</text><line style="stroke:#000000;stroke-width:1;" x1="983.6338" x2="1104.01" y1="419.5601" y2="419.5601"/></g><!--class BSS--><g class="entity" data-qualified-name="L2_Browser.BSS" data-source-line="107" id="ent0013"><rect fill="#FFFFFF" height="303.3286" rx="2.5" ry="2.5" style="stroke:#000000;stroke-width:1;" width="308.5342" x="452.73" y="173.2305"/><ellipse cx="551.0137" cy="188.9993" fill="#FFFFFF" rx="9" ry="9" style="stroke:#000000;stroke-width:1;"/><path d="M552.7642,191.8103 Q552.4566,191.9685 552.1182,192.0476 Q551.7798,192.1267 551.4063,192.1267 Q550.0791,192.1267 549.3804,191.2522 Q548.6817,190.3777 548.6817,188.7253 Q548.6817,187.0686 549.3804,186.1941 Q550.0791,185.3196 551.4063,185.3196 Q551.7798,185.3196 552.1226,185.3987 Q552.4654,185.4778 552.7642,185.636 L552.7642,187.0774 Q552.4302,186.7698 552.116,186.627 Q551.8018,186.4841 551.4678,186.4841 Q550.7559,186.4841 550.3933,187.0488 Q550.0308,187.6135 550.0308,188.7253 Q550.0308,189.8328 550.3933,190.3975 Q550.7559,190.9622 551.4678,190.9622 Q551.8018,190.9622 552.116,190.8193 Q552.4302,190.6765 552.7642,190.3689 Z " fill="#000000"/><text fill="#000000" font-family="Verdana" font-size="9" font-style="italic" lengthAdjust="spacing" textLength="86.2515" x="577.6214" y="187.2788">&#171;P6 + IndexedDB&#187;</text><text fill="#000000" font-family="'Segoe UI'" font-size="9" lengthAdjust="spacing" textLength="104.4668" x="568.5137" y="197.8696">BrowserScenarioStorage</text><line style="stroke:#000000;stroke-width:1;" x1="453.73" x2="760.2642" y1="204.7681" y2="204.7681"/><text fill="#000000" font-family="'Segoe UI'" font-size="9" lengthAdjust="spacing" textLength="97.6948" x="458.73" y="217.4692">-model: StorageModel</text><text fill="#000000" font-family="'Segoe UI'" font-size="9" lengthAdjust="spacing" textLength="77.0273" x="458.73" y="228.0688">-db: IDBDatabase</text><text fill="#000000" font-family="'Segoe UI'" font-size="9" lengthAdjust="spacing" textLength="63.1406" x="458.73" y="253.2681">+constructor()</text><text fill="#000000" font-family="'Segoe UI'" font-size="9" lengthAdjust="spacing" textLength="161.1343" x="458.73" y="263.8677">+init(scenario: StorageScenario): this</text><text fill="#000000" font-family="'Segoe UI'" font-size="9" lengthAdjust="spacing" textLength="183.397" x="458.73" y="274.4673">+toScenario(): Promise&lt;StorageScenario&gt;</text><line style="stroke:#000000;stroke-width:1;" x1="453.73" x2="580.1861" y1="239.2671" y2="239.2671"/><text fill="#000000" font-family="'Segoe UI'" font-size="9" lengthAdjust="spacing" textLength="53.6221" x="580.1861" y="242.1685">P6: Lifecycle</text><line style="stroke:#000000;stroke-width:1;" x1="633.8081" x2="760.2642" y1="239.2671" y2="239.2671"/><text fill="#000000" font-family="'Segoe UI'" font-size="9" lengthAdjust="spacing" textLength="253.9072" x="458.73" y="299.6665">+scenarioSave&lt;T&gt;(uuid, scenario, paths): Promise&lt;void&gt;</text><text fill="#000000" font-family="'Segoe UI'" font-size="9" lengthAdjust="spacing" textLength="221.6206" x="458.73" y="310.2661">+scenarioLoad&lt;T&gt;(uuid): Promise&lt;Scenario&lt;T&gt;&gt;</text><text fill="#000000" font-family="'Segoe UI'" font-size="9" lengthAdjust="spacing" textLength="230.4009" x="458.73" y="320.8657">+scenarioFind&lt;T&gt;(query): Promise&lt;Scenario&lt;T&gt;[]&gt;</text><text fill="#000000" font-family="'Segoe UI'" font-size="9" lengthAdjust="spacing" textLength="214.4355" x="458.73" y="331.4653">+scenarioDelete(uuid, rmLinks?): Promise&lt;void&gt;</text><text fill="#000000" font-family="'Segoe UI'" font-size="9" lengthAdjust="spacing" textLength="184.2539" x="458.73" y="342.0649">+scenarioExists(uuid): Promise&lt;boolean&gt;</text><line style="stroke:#000000;stroke-width:1;" x1="453.73" x2="543.1885" y1="285.6655" y2="285.6655"/><text fill="#000000" font-family="'Segoe UI'" font-size="9" lengthAdjust="spacing" textLength="127.6172" x="543.1885" y="288.5669">PersistenceManager Interface</text><line style="stroke:#000000;stroke-width:1;" x1="670.8057" x2="760.2642" y1="285.6655" y2="285.6655"/><text fill="#000000" font-family="'Segoe UI'" font-size="9" lengthAdjust="spacing" textLength="146.6675" x="458.73" y="367.2642">+typePathBuild(comp, ver): string</text><text fill="#000000" font-family="'Segoe UI'" font-size="9" lengthAdjust="spacing" textLength="213.4028" x="458.73" y="377.8638">+domainPathBuild(parts, host, comp, ver): string</text><text fill="#000000" font-family="'Segoe UI'" font-size="9" lengthAdjust="spacing" textLength="134.9604" x="458.73" y="388.4634">+capabilityPathBuild(...): string</text><line style="stroke:#000000;stroke-width:1;" x1="453.73" x2="578.6677" y1="353.2632" y2="353.2632"/><text fill="#000000" font-family="'Segoe UI'" font-size="9" lengthAdjust="spacing" textLength="56.6587" x="578.6677" y="356.1646">Path Builders</text><line style="stroke:#000000;stroke-width:1;" x1="635.3264" x2="760.2642" y1="353.2632" y2="353.2632"/><text fill="#000000" font-family="'Segoe UI'" font-size="9" lengthAdjust="spacing" textLength="212.3657" x="458.73" y="413.6626">+artefactSave(hash, blob, meta): Promise&lt;void&gt;</text><text fill="#000000" font-family="'Segoe UI'" font-size="9" lengthAdjust="spacing" textLength="296.5342" x="458.73" y="424.2622">+artefactLoad(hash): Promise&lt;{content, size, mimetype, unitUuid}&gt;</text><text fill="#000000" font-family="'Segoe UI'" font-size="9" lengthAdjust="spacing" textLength="182.2544" x="458.73" y="434.8618">+artefactExists(hash): Promise&lt;boolean&gt;</text><line style="stroke:#000000;stroke-width:1;" x1="453.73" x2="561.8828" y1="399.6616" y2="399.6616"/><text fill="#000000" font-family="'Segoe UI'" font-size="9" lengthAdjust="spacing" textLength="90.2285" x="561.8828" y="402.563">Artefact Storage (I.9)</text><line style="stroke:#000000;stroke-width:1;" x1="652.1113" x2="760.2642" y1="399.6616" y2="399.6616"/><text fill="#000000" font-family="'Segoe UI'" font-size="9" lengthAdjust="spacing" textLength="155.2368" x="458.73" y="460.061">-dbOpen(): Promise&lt;IDBDatabase&gt;</text><text fill="#000000" font-family="'Segoe UI'" font-size="9" lengthAdjust="spacing" textLength="230.9766" x="458.73" y="470.6606">-linkPathTypeGet(path): 'type' | 'domain' | 'capability'</text><line style="stroke:#000000;stroke-width:1;" x1="453.73" x2="592.3633" y1="446.0601" y2="446.0601"/><text fill="#000000" font-family="'Segoe UI'" font-size="9" lengthAdjust="spacing" textLength="29.2676" x="592.3633" y="448.9614">Private</text><line style="stroke:#000000;stroke-width:1;" x1="621.6309" x2="760.2642" y1="446.0601" y2="446.0601"/></g><g class="entity" data-qualified-name="GMN19" data-source-line="149" id="ent0020"><path d="M1463.77,250.9905 L1463.77,398.7854 L1672.2231,398.7854 L1672.2231,260.9905 L1662.2231,250.9905 L1463.77,250.9905" fill="#FFFFFF" style="stroke:#000000;stroke-width:1;"/><path d="M1662.2231,250.9905 L1662.2231,260.9905 L1672.2231,260.9905 L1662.2231,250.9905" fill="#FFFFFF" style="stroke:#000000;stroke-width:1;"/><text fill="#000000" font-family="'Segoe UI'" font-size="9" font-weight="bold" lengthAdjust="spacing" textLength="132.9346" x="1469.77" y="264.6916">Filesystem Storage Structure</text><text fill="#000000" font-family="'Segoe UI'" font-size="9" lengthAdjust="spacing" textLength="45.8877" x="1469.77" y="275.2913">scenarios/</text><text fill="#000000" font-family="'Segoe UI'" font-size="9" lengthAdjust="spacing" textLength="137.7422" x="1469.77" y="285.8909">&#9500;&#9472;&#9472; index/{a}/{b}/{c}/{d}/{e}/</text><text fill="#000000" font-family="'Segoe UI'" font-size="9" lengthAdjust="spacing" textLength="183.3047" x="1469.77" y="296.4905">&#9474;   &#9492;&#9472;&#9472; {uuid}.scenario.json    PRIMARY</text><text fill="#000000" font-family="'Segoe UI'" font-size="9" lengthAdjust="spacing" textLength="157.021" x="1469.77" y="307.0901">&#9500;&#9472;&#9472; type/{Component}/{version}/</text><text fill="#000000" font-family="'Segoe UI'" font-size="9" lengthAdjust="spacing" textLength="182.9092" x="1469.77" y="317.6897">&#9474;   &#9492;&#9472;&#9472; {uuid}.scenario.json    SYMLINK</text><text fill="#000000" font-family="'Segoe UI'" font-size="9" lengthAdjust="spacing" textLength="187.4531" x="1469.77" y="328.2893">&#9500;&#9472;&#9472; domain/{dom}/{host}/{Comp}/{ver}/</text><text fill="#000000" font-family="'Segoe UI'" font-size="9" lengthAdjust="spacing" textLength="182.9092" x="1469.77" y="338.8889">&#9474;   &#9492;&#9472;&#9472; {uuid}.scenario.json    SYMLINK</text><text fill="#000000" font-family="'Segoe UI'" font-size="9" lengthAdjust="spacing" textLength="139.043" x="1469.77" y="349.4885">&#9492;&#9472;&#9472; capability/{type}/{value}/</text><text fill="#000000" font-family="'Segoe UI'" font-size="9" lengthAdjust="spacing" textLength="165.3662" x="1481.1606" y="360.0881">&#9492;&#9472;&#9472; {uuid}.scenario.json    SYMLINK</text><text fill="#000000" font-family="'Segoe UI'" font-size="9" lengthAdjust="spacing" textLength="2.8477" x="1469.77" y="370.6877">&#160;</text><text fill="#000000" font-family="'Segoe UI'" font-size="9" lengthAdjust="spacing" textLength="168.1523" x="1469.77" y="381.2873">UUID folder: 5 levels from first 5 chars</text><text fill="#000000" font-family="'Segoe UI'" font-size="9" lengthAdjust="spacing" textLength="136.0591" x="1469.77" y="391.887">(strip hyphens, split into chars)</text></g><g class="entity" data-qualified-name="GMN22" data-source-line="165" id="ent0023"><path d="M1175.01,250.9905 L1175.01,398.7854 L1428.9817,398.7854 L1428.9817,260.9905 L1418.9817,250.9905 L1175.01,250.9905" fill="#FFFFFF" style="stroke:#000000;stroke-width:1;"/><path d="M1418.9817,250.9905 L1418.9817,260.9905 L1428.9817,260.9905 L1418.9817,250.9905" fill="#FFFFFF" style="stroke:#000000;stroke-width:1;"/><text fill="#000000" font-family="'Segoe UI'" font-size="9" font-weight="bold" lengthAdjust="spacing" textLength="133.0576" x="1181.01" y="264.6916">IndexedDB Storage Structure</text><text fill="#000000" font-family="'Segoe UI'" font-size="9" lengthAdjust="spacing" textLength="132.1436" x="1181.01" y="275.2913">Database: once-scenarios (v2)</text><text fill="#000000" font-family="'Segoe UI'" font-size="9" lengthAdjust="spacing" textLength="176.6997" x="1181.01" y="285.8909">&#9500;&#9472;&#9472; scenarios-index      keyPath: uuid</text><text fill="#000000" font-family="'Segoe UI'" font-size="9" lengthAdjust="spacing" textLength="224.6616" x="1181.01" y="296.4905">&#9500;&#9472;&#9472; scenarios-type       keyPath: key, index: uuid</text><text fill="#000000" font-family="'Segoe UI'" font-size="9" lengthAdjust="spacing" textLength="232.9717" x="1181.01" y="307.0901">&#9500;&#9472;&#9472; scenarios-domain     keyPath: key, index: uuid</text><text fill="#000000" font-family="'Segoe UI'" font-size="9" lengthAdjust="spacing" textLength="230.5811" x="1181.01" y="317.6897">&#9500;&#9472;&#9472; scenarios-capability keyPath: key, index: uuid</text><text fill="#000000" font-family="'Segoe UI'" font-size="9" lengthAdjust="spacing" textLength="196.2773" x="1181.01" y="328.2893">&#9492;&#9472;&#9472; artefacts            keyPath: contentHash</text><text fill="#000000" font-family="'Segoe UI'" font-size="9" lengthAdjust="spacing" textLength="131.625" x="1192.4006" y="338.8889">(indexes: unitUuid, mimetype)</text><text fill="#000000" font-family="'Segoe UI'" font-size="9" lengthAdjust="spacing" textLength="2.8477" x="1181.01" y="349.4885">&#160;</text><text fill="#000000" font-family="'Segoe UI'" font-size="9" lengthAdjust="spacing" textLength="159.2227" x="1181.01" y="360.0881">Same logical structure as filesystem,</text><text fill="#000000" font-family="'Segoe UI'" font-size="9" lengthAdjust="spacing" textLength="141.293" x="1181.01" y="370.6877">adapted for browser IndexedDB.</text><text fill="#000000" font-family="'Segoe UI'" font-size="9" lengthAdjust="spacing" textLength="128.9795" x="1181.01" y="381.2873">Artefact store added in v2 for</text><text fill="#000000" font-family="'Segoe UI'" font-size="9" lengthAdjust="spacing" textLength="177.6577" x="1181.01" y="391.887">content-addressable Blob deduplication.</text></g><g class="entity" data-qualified-name="GMN25" data-source-line="181" id="ent0026"><path d="M1224.22,622.7205 L1224.22,685.7185 L1401.7752,685.7185 L1401.7752,632.7205 L1391.7752,622.7205 L1224.22,622.7205" fill="#FFFFFF" style="stroke:#000000;stroke-width:1;"/><path d="M1391.7752,622.7205 L1391.7752,632.7205 L1401.7752,632.7205 L1391.7752,622.7205" fill="#FFFFFF" style="stroke:#000000;stroke-width:1;"/><text fill="#000000" font-family="'Segoe UI'" font-size="9" font-weight="bold" lengthAdjust="spacing" textLength="148.7197" x="1230.22" y="636.4216">P14: Unified Kernel Architecture</text><text fill="#000000" font-family="'Segoe UI'" font-size="9" lengthAdjust="spacing" textLength="156.5552" x="1230.22" y="647.0213">Same PersistenceManager interface,</text><text fill="#000000" font-family="'Segoe UI'" font-size="9" lengthAdjust="spacing" textLength="135.189" x="1230.22" y="657.6209">two platform implementations.</text><text fill="#000000" font-family="'Segoe UI'" font-size="9" lengthAdjust="spacing" textLength="142.897" x="1230.22" y="668.2205">Node.js: fs symlinks + JSON files</text><text fill="#000000" font-family="'Segoe UI'" font-size="9" lengthAdjust="spacing" textLength="148.7109" x="1230.22" y="678.8201">Browser: IndexedDB stores + Blob</text></g><!--link UcpSt to ExtSTG--><g class="link" data-entity-1="ent0011" data-entity-2="ent0004" data-link-type="extension" data-source-line="138" id="lnk14"><path codeLine="138" d="M925.34,503.5305 C925.34,547.8405 925.34,572.7805 925.34,601.4205" fill="none" id="UcpSt-to-ExtSTG" style="stroke:#000000;stroke-width:1;"/><polygon fill="none" points="925.34,619.4205,931.34,601.4205,919.34,601.4205,925.34,619.4205" style="stroke:#000000;stroke-width:1;"/><text fill="#000000" font-family="'Segoe UI'" font-size="9" lengthAdjust="spacing" textLength="34.752" x="890.34" y="559.1716">extends</text></g><!--link BSS to ExtPM--><g class="link" data-entity-1="ent0013" data-entity-2="ent0003" data-link-type="extension" data-source-line="139" id="lnk15"><path codeLine="139" d="M614.45,477.0305 C614.45,515.9605 614.45,537.8305 614.45,569.8705" fill="none" id="BSS-to-ExtPM" style="stroke:#000000;stroke-width:1;stroke-dasharray:7,7;"/><polygon fill="none" points="614.45,587.8705,620.45,569.8705,608.45,569.8705,614.45,587.8705" style="stroke:#000000;stroke-width:1;"/><text fill="#000000" font-family="'Segoe UI'" font-size="9" lengthAdjust="spacing" textLength="51.2402" x="562.45" y="530.1516">implements</text></g><!--link UcpSt to ISTM--><g class="link" data-entity-1="ent0011" data-entity-2="ent0007" data-link-type="dependency" data-source-line="140" id="lnk16"><path codeLine="140" d="M832.57,489.3905 C587.7,489.3905 98.91,489.3905 98.91,489.3905 C98.91,489.3905 98.91,551.0405 98.91,599.6605" fill="none" id="UcpSt-to-ISTM" style="stroke:#000000;stroke-width:1;"/><polygon fill="#000000" points="98.91,605.6605,102.91,596.6605,98.91,600.6605,94.91,596.6605,98.91,605.6605" style="stroke:#000000;stroke-width:1;"/><text fill="#000000" font-family="'Segoe UI'" font-size="9" lengthAdjust="spacing" textLength="48.8057" x="358.6" y="487.0916">model type</text></g><!--link BSS to ISTM--><g class="link" data-entity-1="ent0013" data-entity-2="ent0007" data-link-type="dependency" data-source-line="141" id="lnk17"><path codeLine="141" d="M452.59,325.3905 C291.79,325.3905 63.09,325.3905 63.09,325.3905 C63.09,325.3905 63.09,507.7505 63.09,599.3505" fill="none" id="BSS-to-ISTM" style="stroke:#000000;stroke-width:1;"/><polygon fill="#000000" points="63.09,605.3505,67.09,596.3505,63.09,600.3505,59.09,596.3505,63.09,605.3505" style="stroke:#000000;stroke-width:1;"/><text fill="#000000" font-family="'Segoe UI'" font-size="9" lengthAdjust="spacing" textLength="48.8057" x="68.86" y="323.0916">model type</text></g><!--link UcpSt to ExtIOR--><g class="link" data-entity-1="ent0011" data-entity-2="ent0005" data-link-type="dependency" data-source-line="142" id="lnk18"><path codeLine="142" d="M1078.89,503.5305 C1078.89,546.0205 1078.89,581.2605 1078.89,609.8305" fill="none" id="UcpSt-to-ExtIOR" style="stroke:#000000;stroke-width:1;stroke-dasharray:7,7;"/><polygon fill="#000000" points="1078.89,615.8305,1082.89,606.8305,1078.89,610.8305,1074.89,606.8305,1078.89,615.8305" style="stroke:#000000;stroke-width:1;"/><text fill="#000000" font-family="'Segoe UI'" font-size="9" lengthAdjust="spacing" textLength="35.1431" x="1019.3898" y="536.3816">uses for</text><text fill="#000000" font-family="'Segoe UI'" font-size="9" lengthAdjust="spacing" textLength="82.1426" x="995.89" y="546.9812">scenario load/save</text><text fill="#000000" font-family="'Segoe UI'" font-size="9" lengthAdjust="spacing" textLength="66.0542" x="1003.9342" y="557.5809">(FsM.3 pattern)</text></g><!--link UcpSt to GMN19--><g class="link" data-entity-1="ent0011" data-entity-2="ent0020" data-link-type="association" data-source-line="149" id="lnk21"><path d="M1105.3,433.3905 C1282.06,433.3905 1568,433.3905 1568,433.3905 C1568,433.3905 1568,418.1305 1568,399.0605" fill="none" id="UcpSt-GMN19" style="stroke:#000000;stroke-width:1;stroke-dasharray:7,7;"/></g><!--link BSS to GMN22--><g class="link" data-entity-1="ent0013" data-entity-2="ent0023" data-link-type="association" data-source-line="165" id="lnk24"><path d="M687.86,476.8305 C687.86,515.0305 687.86,545.3905 687.86,545.3905 C687.86,545.3905 1182.12,545.3905 1182.12,545.3905 C1182.12,545.3905 1182.12,463.2505 1182.12,399.2405" fill="none" id="BSS-GMN22" style="stroke:#000000;stroke-width:1;stroke-dasharray:7,7;"/></g><!--link L2_Node to GMN25--><g class="link" data-entity-1="ent0010" data-entity-2="ent0026" data-link-type="association" data-source-line="181" id="lnk27"><path d="M1148.3441,468.3905 C1148.6555,468.3905 1148.9746,468.3905 1149.3012,468.3905 C1149.9546,468.3905 1150.6383,468.3905 1151.351,468.3905 C1152.7765,468.3905 1154.3181,468.3905 1155.9653,468.3905 C1159.2598,468.3905 1162.9766,468.3905 1167.0313,468.3905 C1183.25,468.3905 1204.875,468.3905 1226.5,468.3905 C1269.75,468.3905 1313,468.3905 1313,468.3905 C1313,468.3905 1313,569.1405 1313,622.2805" fill="none" id="L2_Node-GMN25" style="stroke:#000000;stroke-width:1;stroke-dasharray:7,7;"/></g><?plantuml-src xLdHSXet57tdAswTcHfImAsTT1ecGsi7qzA0Gy1Ecsaw7h4hGFMosafQnuGmq-aNz25zwzVbItebhNQNPPtQUOkds7ZCwjwhA-ded2lncPhJ1OKe82oio0iMHaIG1Ko8Tp4JF0xz9ppW0dwQCqLpxJwTaZXGNHwg4uB-EsCwunJEUZlbHcFsXiAZN9iN42aFbH9i4YlQytXeJBxCcGGif6ePKU12pNcbefWAA7ptcauUNEr5L4Wc5GqzT6eUDFSFcb_2-p_UmTYZ8H6CmrXnGMRqLTY9IG33WAWf5uiMd72VDd-JK9soWCebnbZKu0iu4lorf0AglT2dLzJl7DNGbKOqz2NmiEKwZhseKjc5zt__zUd-Olx7FvyUZquE-_bnGTKtuyL9NTO--J5M8iGm0W1syYEaLugAa0Ir7I0IpfuCuTwnUS6g0a0cKWdYAGjFs1bcA1kG48C9utPyfOO3UFpuHzaBCToKUBJTDW40aRHoKTOW4p2EoIMjnZ7pw-cZEaH4pMMj1KF15qpInvUS-UthO_GvyKsCd8i3-mVSkYpqgx_7L2nB_7xvzGEU7HfGvT8MYpuBB-ItDy_t-0fdJXOpdd0UK1AM-EcjFiGfEOfPu5SzleZgS4a5-g852sVR7ZvV86jbFaWRIjPXpgMgmqq2U2GY4nOmjSo2D9lDlCUwKWABX5eS5iQdtoCODB8qLsnZfXmRB6IgwYQhvUZAhGpceEPCbamJToRL_89kUhTTvad2lMUZnwTjboz-IXFIMOpeWkD2Cox6PjYRVGigUO3mpVLswfPFQbpxH94IMAmhwxj0bFt3bySZE6X1kjLHEWHjqAi8TKd258UTuz2xn9jziaH1F32ocXlzvp2AGyLGzKznoqg3glu1tEi-r3-8B5nyvipJpJ90sGsCRMzyEaZnf-cXi44ZmN-ZdXfnhWejJ4lp4P6qmqIXoHEKAEeV5btYoDzwlYxFq6qUb-GusoGSkrk1PK9DB3oaeJBi8XaFCQ2ruwz3ManieSUTRcyp2sKf97q_rqIT9F0yxJ_jyjj2y2I1ucDBZCMd6TlfTRk-zGK9uetcExMJzt4dBw80YzvG4QLNJyDxeqQySrjutupH5RwRmxVRT_zSjs8jz4ttuV4ZkuSJxJZpehpUcOyeTyEl4JJTj8HEDQvn3U81pi-7NxUWpwRKMte1FJztuYPr9XvM3We5NEkCbX30FWITQIKLKdUSn4E7uQ3TJdT6Y32DFMohrdAITbDXlR6QclItb3sZnNGq-P8FXV9MLL--r7E-9LKRDXKzT9MdFQuhzB0jg_K-fi2xHLM74uLZ15DEuOobCtF30k_ZgheRb78wipwT4My9LJpO2UffPQXjvAVdG0VudYAJOtEMPXsICPSak-Lb7-VIBVVEajwAe9D1Jqt5PRuunu9Tec6IVSFOTBcUyOquswwDT2tDITTQgtB3vG8FuHTFZBPMcJElkmRzeHGlZRo8cnF8TJaO1Z4MFXEvMDROORQHIU0BAtawvItpBMDzDt6jfP6rKgPqTm7bJEbQxnqVTFUxdGsoJDhSjiiJvz5ux6WplMAu0Mism9-WP7MEEbXcJx3s-I2N_i-7__FXRVZmK2WwrITRfwxLNlDHHeaaQJRt5tCYSUjF0ZwfmuAMdldoFkQ-Gllax5Q8JsLAPydU8B4jy1HXcIv6a9xX9AwBOP89BWGgJd213Ft9iuY6UGZdDf1Z2STWkXhM915PDjlL2Ut2MzYrCs_-pQPpz-uKn2CQ66AJSnR9Jx_ejPLfe_6sxIvbMf1SobGq-JQRjcKum0Rcg5scVcrxCcrPAZRRq_YLjrYlPhFjRbHQ44iy7UC1ubNes042t0Hx-fRaLLZjoa7pGFETle6itGK0ET8O6yc91OKE8pD15dS0JI5N50IRpHNmgJtruCw_VpyxycmF__vzD75hB_Vmm_jt_xn_zmV-shkBlHLPxwqc-FRmxUERhgtPdw3_lakCLrfFraqN2azjU4x5rt3K6noENcu4rcZSMprn9G_6J6u5RXLv_7BGxvqytOXi-G_pv0kCgWLdRJkoVNnqV6URaUhUIez2XzK5hmaCjmgB3cTdlGxkFgsnBNW80RsaGN8zDsL2AdpcpOdGbKvLQs04ysKqfo5ggOmm2NqTmwr9hOAa0He1HHmW7nWKf1NSDI1mMjC2ZjLH8yK4L2_tQnkJd3Or34Bim2-eaUsMgUglCJTVZHNCyP-wHTe7NUt2VfHhjcR_uUfMpkcuXDmhTKtgWHzGtPCrjySCAbjfIP2L2JMzpcFzVMF0PymZ0SYKUR32phxGg-jBUvz4UBxJX0mJLz2xPMkYGLhxI5n23E3xQ8tJShclVNHDRvDhO8kWKf99GE48onz0mnWXundrR1R1Ck5A8UWGBScrYa7CyAi7BJWBsPHXBqzH0L183eMdlrVDO6F6Lb9MfpU5Uc3gDTVVrvghgap7h9BhSINtF2sOIdTGarXG_JX-TcAd26sISqehcn4x2zfG3p4Rqxy0?></g></svg>