<?plantuml 1.2026.2?><svg xmlns="http://www.w3.org/2000/svg" xmlns:xlink="http://www.w3.org/1999/xlink" contentStyleType="text/css" data-diagram-type="CLASS" height="918px" preserveAspectRatio="none" style="width:1962px;height:918px;background:#FFFFFF;" version="1.1" viewBox="0 0 1962 918" width="1962px" zoomAndPan="magnify"><title>@web4x/http 0.3.23.0 &#8212; HTTP Server Stack
Depends on: @web4x/ucp</title><defs/><g><g class="title" data-source-line="7"><text fill="#000000" font-family="'Segoe UI'" font-size="22" font-weight="bold" lengthAdjust="spacing" textLength="491.7344" x="731.1096" y="36.2695">@web4x/http 0.3.23.0 &#8212; HTTP Server Stack</text><text fill="#000000" font-family="'Segoe UI'" font-size="22" font-weight="bold" lengthAdjust="spacing" textLength="293.7236" x="830.115" y="62.1797">Depends on: @web4x/ucp</text></g><!--cluster L3--><g class="cluster" data-qualified-name="L3" data-source-line="9" id="ent0002"><path d="M1514.5,133.2903 L1692.5425,133.2903 A3.75,3.75 0 0 1 1695.0425,135.7903 L1702.0425,149.8899 L1833.5,149.8899 A2.5,2.5 0 0 1 1836,152.3899 L1836,535.4203 A2.5,2.5 0 0 1 1833.5,537.9203 L1514.5,537.9203 A2.5,2.5 0 0 1 1512,535.4203 L1512,135.7903 A2.5,2.5 0 0 1 1514.5,133.2903" fill="#F5F5F5" style="stroke:#000000;stroke-width:1;"/><line style="stroke:#000000;stroke-width:1;" x1="1512" x2="1702.0425" y1="149.8899" y2="149.8899"/><text fill="#000000" font-family="'Segoe UI'" font-size="9" font-weight="bold" lengthAdjust="spacing" textLength="177.0425" x="1516" y="143.9915">Layer 3 &#8212; Interfaces &amp; Runtime Types</text></g><!--cluster L2--><g class="cluster" data-qualified-name="L2" data-source-line="39" id="ent0007"><path d="M13.5,83.8203 L136.4307,83.8203 A3.75,3.75 0 0 1 138.9307,86.3203 L145.9307,100.4199 L1485.5,100.4199 A2.5,2.5 0 0 1 1488,102.9199 L1488,908.7203 A2.5,2.5 0 0 1 1485.5,911.2203 L13.5,911.2203 A2.5,2.5 0 0 1 11,908.7203 L11,86.3203 A2.5,2.5 0 0 1 13.5,83.8203" fill="#E8F5E9" style="stroke:#000000;stroke-width:1;"/><line style="stroke:#000000;stroke-width:1;" x1="11" x2="145.9307" y1="100.4199" y2="100.4199"/><text fill="#000000" font-family="'Segoe UI'" font-size="9" font-weight="bold" lengthAdjust="spacing" textLength="121.9307" x="15" y="94.5215">Layer 2 &#8212; Implementation</text></g><!--cluster L4--><g class="cluster" data-qualified-name="L4" data-source-line="137" id="ent0030"><path d="M1514.5,765.6803 L1760.1348,765.6803 A3.75,3.75 0 0 1 1762.6348,768.1803 L1769.6348,782.2799 L1769.5,782.2799 A2.5,2.5 0 0 1 1772,784.7799 L1772,887.5203 A2.5,2.5 0 0 1 1769.5,890.0203 L1514.5,890.0203 A2.5,2.5 0 0 1 1512,887.5203 L1512,768.1803 A2.5,2.5 0 0 1 1514.5,765.6803" fill="#FFF3E0" style="stroke:#000000;stroke-width:1;"/><line style="stroke:#000000;stroke-width:1;" x1="1512" x2="1769.6348" y1="782.2799" y2="782.2799"/><text fill="#000000" font-family="'Segoe UI'" font-size="9" font-weight="bold" lengthAdjust="spacing" textLength="244.6348" x="1516" y="776.3815">Layer 4 &#8212; Async Orchestration (P7: only async layer)</text></g><!--class IHSM--><g class="entity" data-qualified-name="L3.IHSM" data-source-line="10" id="ent0003"><rect fill="#FFFFFF" height="86.3984" rx="2.5" ry="2.5" style="stroke:#000000;stroke-width:1;" width="128.9604" x="1527.52" y="162.2903"/><ellipse cx="1551.5588" cy="176.2903" fill="#FFFFFF" rx="9" ry="9" style="stroke:#000000;stroke-width:1;"/><path d="M1549.8147,174.3719 L1549.8147,173.2293 L1553.7214,173.2293 L1553.7214,174.3719 L1552.4163,174.3719 L1552.4163,178.6477 L1553.7214,178.6477 L1553.7214,179.7903 L1549.8147,179.7903 L1549.8147,178.6477 L1551.1199,178.6477 L1551.1199,174.3719 Z " fill="#000000"/><text fill="#000000" font-family="'Segoe UI'" font-size="9" font-style="italic" lengthAdjust="spacing" textLength="76.4297" x="1566.0119" y="179.6917">HTTPServerModel</text><line style="stroke:#000000;stroke-width:1;" x1="1528.52" x2="1655.4804" y1="190.2903" y2="190.2903"/><text fill="#000000" font-family="'Segoe UI'" font-size="9" lengthAdjust="spacing" textLength="65.0259" x="1533.52" y="202.9915">+port: number</text><text fill="#000000" font-family="'Segoe UI'" font-size="9" lengthAdjust="spacing" textLength="57.353" x="1533.52" y="213.5911">+host: string</text><text fill="#000000" font-family="'Segoe UI'" font-size="9" lengthAdjust="spacing" textLength="92.9795" x="1533.52" y="224.1907">+state: LifecycleState</text><text fill="#000000" font-family="'Segoe UI'" font-size="9" lengthAdjust="spacing" textLength="116.9604" x="1533.52" y="234.7903">+statistics: StatisticsModel</text><line style="stroke:#000000;stroke-width:1;" x1="1528.52" x2="1655.4804" y1="240.6888" y2="240.6888"/></g><!--class IRM--><g class="entity" data-qualified-name="L3.IRM" data-source-line="17" id="ent0004"><rect fill="#FFFFFF" height="65.1992" rx="2.5" ry="2.5" style="stroke:#000000;stroke-width:1;" width="128.9604" x="1691.52" y="172.8903"/><ellipse cx="1725.0095" cy="186.8903" fill="#FFFFFF" rx="9" ry="9" style="stroke:#000000;stroke-width:1;"/><path d="M1723.2654,184.9719 L1723.2654,183.8293 L1727.1721,183.8293 L1727.1721,184.9719 L1725.8669,184.9719 L1725.8669,189.2477 L1727.1721,189.2477 L1727.1721,190.3903 L1723.2654,190.3903 L1723.2654,189.2477 L1724.5705,189.2477 L1724.5705,184.9719 Z " fill="#000000"/><text fill="#000000" font-family="'Segoe UI'" font-size="9" font-style="italic" lengthAdjust="spacing" textLength="55.4282" x="1741.5627" y="190.2917">RouterModel</text><line style="stroke:#000000;stroke-width:1;" x1="1692.52" x2="1819.4804" y1="200.8903" y2="200.8903"/><text fill="#000000" font-family="'Segoe UI'" font-size="9" lengthAdjust="spacing" textLength="98.2134" x="1697.52" y="213.5915">+routes: RouteModel[]</text><text fill="#000000" font-family="'Segoe UI'" font-size="9" lengthAdjust="spacing" textLength="116.9604" x="1697.52" y="224.1911">+statistics: StatisticsModel</text><line style="stroke:#000000;stroke-width:1;" x1="1692.52" x2="1819.4804" y1="230.0895" y2="230.0895"/></g><!--class IRoM--><g class="entity" data-qualified-name="L3.IRoM" data-source-line="22" id="ent0005"><rect fill="#FFFFFF" height="75.7988" rx="2.5" ry="2.5" style="stroke:#000000;stroke-width:1;" width="128.9604" x="1527.52" y="424.9203"/><ellipse cx="1562.6667" cy="438.9203" fill="#FFFFFF" rx="9" ry="9" style="stroke:#000000;stroke-width:1;"/><path d="M1560.9225,437.0019 L1560.9225,435.8593 L1564.8293,435.8593 L1564.8293,437.0019 L1563.5241,437.0019 L1563.5241,441.2777 L1564.8293,441.2777 L1564.8293,442.4203 L1560.9225,442.4203 L1560.9225,441.2777 L1562.2277,441.2777 L1562.2277,437.0019 Z " fill="#000000"/><text fill="#000000" font-family="'Segoe UI'" font-size="9" font-style="italic" lengthAdjust="spacing" textLength="51.7456" x="1579.5882" y="442.3217">RouteModel</text><line style="stroke:#000000;stroke-width:1;" x1="1528.52" x2="1655.4804" y1="452.9203" y2="452.9203"/><text fill="#000000" font-family="'Segoe UI'" font-size="9" lengthAdjust="spacing" textLength="69.9346" x="1533.52" y="465.6215">+pattern: string</text><text fill="#000000" font-family="'Segoe UI'" font-size="9" lengthAdjust="spacing" textLength="108.7734" x="1533.52" y="476.2211">+methods: HttpMethod[]</text><text fill="#000000" font-family="'Segoe UI'" font-size="9" lengthAdjust="spacing" textLength="116.9604" x="1533.52" y="486.8207">+statistics: StatisticsModel</text><line style="stroke:#000000;stroke-width:1;" x1="1528.52" x2="1655.4804" y1="492.7191" y2="492.7191"/></g><!--class HM--><g class="entity" data-qualified-name="L3.HM" data-source-line="28" id="ent0006"><rect fill="#FFFFFF" height="118.1973" rx="2.5" ry="2.5" style="stroke:#000000;stroke-width:1;" width="79.9214" x="1691.04" y="403.7203"/><ellipse cx="1704.04" cy="417.7203" fill="#FFFFFF" rx="9" ry="9" style="stroke:#000000;stroke-width:1;"/><path d="M1706.3652,421.2203 L1702.2783,421.2203 L1702.2783,414.6593 L1706.3652,414.6593 L1706.3652,415.8019 L1703.5747,415.8019 L1703.5747,417.2169 L1706.1015,417.2169 L1706.1015,418.3595 L1703.5747,418.3595 L1703.5747,420.0777 L1706.3652,420.0777 Z " fill="#000000"/><text fill="#000000" font-family="'Segoe UI'" font-size="9" lengthAdjust="spacing" textLength="51.9214" x="1716.04" y="421.1217">HttpMethod</text><line style="stroke:#000000;stroke-width:1;" x1="1692.04" x2="1769.9614" y1="431.7203" y2="431.7203"/><text fill="#000000" font-family="'Segoe UI'" font-size="9" lengthAdjust="spacing" textLength="17.0728" x="1697.04" y="444.4215">GET</text><text fill="#000000" font-family="'Segoe UI'" font-size="9" lengthAdjust="spacing" textLength="22.5044" x="1697.04" y="455.0211">POST</text><text fill="#000000" font-family="'Segoe UI'" font-size="9" lengthAdjust="spacing" textLength="16.9014" x="1697.04" y="465.6207">PUT</text><text fill="#000000" font-family="'Segoe UI'" font-size="9" lengthAdjust="spacing" textLength="31.8647" x="1697.04" y="476.2203">DELETE</text><text fill="#000000" font-family="'Segoe UI'" font-size="9" lengthAdjust="spacing" textLength="29.7158" x="1697.04" y="486.8199">PATCH</text><text fill="#000000" font-family="'Segoe UI'" font-size="9" lengthAdjust="spacing" textLength="38.7378" x="1697.04" y="497.4195">OPTIONS</text><text fill="#000000" font-family="'Segoe UI'" font-size="9" lengthAdjust="spacing" textLength="24.4424" x="1697.04" y="508.0191">HEAD</text><line style="stroke:#000000;stroke-width:1;" x1="1692.04" x2="1769.9614" y1="513.9176" y2="513.9176"/></g><!--class HS--><g class="entity" data-qualified-name="L2.HS" data-source-line="41" id="ent0008"><rect fill="#FFFFFF" height="185.3325" rx="2.5" ry="2.5" style="stroke:#000000;stroke-width:1;" width="173.6353" x="292.18" y="112.8203"/><ellipse cx="324.5843" cy="128.5891" fill="#FFFFFF" rx="9" ry="9" style="stroke:#000000;stroke-width:1;"/><path d="M326.3348,131.4001 Q326.0271,131.5583 325.6888,131.6375 Q325.3504,131.7166 324.9769,131.7166 Q323.6497,131.7166 322.951,130.842 Q322.2522,129.9675 322.2522,128.3152 Q322.2522,126.6584 322.951,125.7839 Q323.6497,124.9094 324.9769,124.9094 Q325.3504,124.9094 325.6932,124.9885 Q326.0359,125.0676 326.3348,125.2258 L326.3348,126.6672 Q326.0008,126.3596 325.6866,126.2168 Q325.3724,126.074 325.0384,126.074 Q324.3265,126.074 323.9639,126.6387 Q323.6014,127.2034 323.6014,128.3152 Q323.6014,129.4226 323.9639,129.9873 Q324.3265,130.552 325.0384,130.552 Q325.3724,130.552 325.6866,130.4092 Q326.0008,130.2664 326.3348,129.9587 Z " fill="#000000"/><text fill="#000000" font-family="Verdana" font-size="9" font-style="italic" lengthAdjust="spacing" textLength="106.5146" x="338.8963" y="126.8687">&#171;P6 + P7: sync layer2&#187;</text><text fill="#000000" font-family="'Segoe UI'" font-size="9" lengthAdjust="spacing" textLength="49.8691" x="367.2191" y="137.4595">HTTPServer</text><line style="stroke:#000000;stroke-width:1;" x1="293.18" x2="464.8153" y1="144.3579" y2="144.3579"/><text fill="#000000" font-family="'Segoe UI'" font-size="9" lengthAdjust="spacing" textLength="116.4902" x="298.18" y="157.0591">+model: HTTPServerModel</text><text fill="#000000" font-family="'Segoe UI'" font-size="9" lengthAdjust="spacing" textLength="121.6846" x="298.18" y="167.6587">-server: Reference&lt;Server&gt;</text><text fill="#000000" font-family="'Segoe UI'" font-size="9" lengthAdjust="spacing" textLength="89.6001" x="298.18" y="178.2583">-router: HTTPRouter</text><text fill="#000000" font-family="'Segoe UI'" font-size="9" lengthAdjust="spacing" textLength="63.1406" x="298.18" y="203.4575">+constructor()</text><text fill="#000000" font-family="'Segoe UI'" font-size="9" lengthAdjust="spacing" textLength="89.376" x="298.18" y="214.0571">+init(scenario?): this</text><text fill="#000000" font-family="'Segoe UI'" font-size="9" lengthAdjust="spacing" textLength="101.2764" x="298.18" y="224.6567">+toScenario(): Scenario</text><line style="stroke:#000000;stroke-width:1;" x1="293.18" x2="352.1866" y1="189.4565" y2="189.4565"/><text fill="#000000" font-family="'Segoe UI'" font-size="9" lengthAdjust="spacing" textLength="53.6221" x="352.1866" y="192.3579">P6: Lifecycle</text><line style="stroke:#000000;stroke-width:1;" x1="405.8087" x2="464.8153" y1="189.4565" y2="189.4565"/><text fill="#000000" font-family="'Segoe UI'" font-size="9" lengthAdjust="spacing" textLength="103.9175" x="298.18" y="249.856">+start(): Promise&lt;this&gt;</text><text fill="#000000" font-family="'Segoe UI'" font-size="9" lengthAdjust="spacing" textLength="103.0913" x="298.18" y="260.4556">+stop(): Promise&lt;this&gt;</text><text fill="#000000" font-family="'Segoe UI'" font-size="9" lengthAdjust="spacing" textLength="161.6353" x="298.18" y="271.0552">+routerSet(router: HTTPRouter): void</text><text fill="#000000" font-family="'Segoe UI'" font-size="9" lengthAdjust="spacing" textLength="113.8711" x="298.18" y="281.6548">+get isRunning(): boolean</text><text fill="#000000" font-family="'Segoe UI'" font-size="9" lengthAdjust="spacing" textLength="87.7192" x="298.18" y="292.2544">+get port(): number</text><line style="stroke:#000000;stroke-width:1;" x1="293.18" x2="340.128" y1="235.855" y2="235.855"/><text fill="#000000" font-family="'Segoe UI'" font-size="9" lengthAdjust="spacing" textLength="77.7393" x="340.128" y="238.7563">Server Operations</text><line style="stroke:#000000;stroke-width:1;" x1="417.8673" x2="464.8153" y1="235.855" y2="235.855"/></g><!--class HR--><g class="entity" data-qualified-name="L2.HR" data-source-line="57" id="ent0009"><rect fill="#FFFFFF" height="185.3325" rx="2.5" ry="2.5" style="stroke:#000000;stroke-width:1;" width="210.9229" x="107.54" y="370.1503"/><ellipse cx="143.4682" cy="385.9191" fill="#FFFFFF" rx="9" ry="9" style="stroke:#000000;stroke-width:1;"/><path d="M145.2187,388.7301 Q144.9111,388.8883 144.5727,388.9675 Q144.2344,389.0466 143.8608,389.0466 Q142.5337,389.0466 141.8349,388.172 Q141.1362,387.2975 141.1362,385.6452 Q141.1362,383.9884 141.8349,383.1139 Q142.5337,382.2394 143.8608,382.2394 Q144.2344,382.2394 144.5771,382.3185 Q144.9199,382.3976 145.2187,382.5558 L145.2187,383.9972 Q144.8848,383.6896 144.5705,383.5468 Q144.2563,383.404 143.9223,383.404 Q143.2104,383.404 142.8479,383.9687 Q142.4853,384.5334 142.4853,385.6452 Q142.4853,386.7526 142.8479,387.3173 Q143.2104,387.882 143.9223,387.882 Q144.2563,387.882 144.5705,387.7392 Q144.8848,387.5964 145.2187,387.2887 Z " fill="#000000"/><text fill="#000000" font-family="Verdana" font-size="9" font-style="italic" lengthAdjust="spacing" textLength="135.9712" x="158.5634" y="384.1987">&#171;P2: Convention over Config&#187;</text><text fill="#000000" font-family="'Segoe UI'" font-size="9" lengthAdjust="spacing" textLength="51.8379" x="200.6301" y="394.7895">HTTPRouter</text><line style="stroke:#000000;stroke-width:1;" x1="108.54" x2="317.4629" y1="401.6879" y2="401.6879"/><text fill="#000000" font-family="'Segoe UI'" font-size="9" lengthAdjust="spacing" textLength="95.4888" x="113.54" y="414.3891">+model: RouterModel</text><text fill="#000000" font-family="'Segoe UI'" font-size="9" lengthAdjust="spacing" textLength="127.6787" x="113.54" y="424.9887">-routes: Map&lt;string, Route&gt;</text><text fill="#000000" font-family="'Segoe UI'" font-size="9" lengthAdjust="spacing" textLength="104.3174" x="113.54" y="435.5883">-errorRoute: ErrorRoute</text><text fill="#000000" font-family="'Segoe UI'" font-size="9" lengthAdjust="spacing" textLength="63.1406" x="113.54" y="460.7875">+constructor()</text><text fill="#000000" font-family="'Segoe UI'" font-size="9" lengthAdjust="spacing" textLength="89.376" x="113.54" y="471.3871">+init(scenario?): this</text><line style="stroke:#000000;stroke-width:1;" x1="108.54" x2="186.1904" y1="446.7865" y2="446.7865"/><text fill="#000000" font-family="'Segoe UI'" font-size="9" lengthAdjust="spacing" textLength="53.6221" x="186.1904" y="449.6879">P6: Lifecycle</text><line style="stroke:#000000;stroke-width:1;" x1="239.8125" x2="317.4629" y1="446.7865" y2="446.7865"/><text fill="#000000" font-family="'Segoe UI'" font-size="9" lengthAdjust="spacing" textLength="149.959" x="113.54" y="496.5863">+routeRegister(route: Route): void</text><text fill="#000000" font-family="'Segoe UI'" font-size="9" lengthAdjust="spacing" textLength="176.6206" x="113.54" y="507.186">+routeUnregister(pattern, method): void</text><text fill="#000000" font-family="'Segoe UI'" font-size="9" lengthAdjust="spacing" textLength="164.9531" x="113.54" y="517.7856">+routeMatch(req): Reference&lt;Route&gt;</text><text fill="#000000" font-family="'Segoe UI'" font-size="9" lengthAdjust="spacing" textLength="149.0186" x="113.54" y="528.3852">+handle(req, res): Promise&lt;void&gt;</text><text fill="#000000" font-family="'Segoe UI'" font-size="9" lengthAdjust="spacing" textLength="198.9229" x="113.54" y="538.9848">+errorHandle(req, res, error): Promise&lt;void&gt;</text><text fill="#000000" font-family="'Segoe UI'" font-size="9" lengthAdjust="spacing" textLength="105.1128" x="113.54" y="549.5844">+get routeList(): Route[]</text><line style="stroke:#000000;stroke-width:1;" x1="108.54" x2="196.0166" y1="482.5854" y2="482.5854"/><text fill="#000000" font-family="'Segoe UI'" font-size="9" lengthAdjust="spacing" textLength="33.9697" x="196.0166" y="485.4867">Routing</text><line style="stroke:#000000;stroke-width:1;" x1="229.9863" x2="317.4629" y1="482.5854" y2="482.5854"/></g><!--class R--><g class="entity" data-qualified-name="L2.R" data-source-line="73" id="ent0010"><rect fill="#FFFFFF" height="121.7349" rx="2.5" ry="2.5" style="stroke:#000000;stroke-width:1;" width="161.0186" x="720.49" y="773.4903"/><ellipse cx="753.6319" cy="789.2591" fill="#FFFFFF" rx="9" ry="9" style="stroke:#000000;stroke-width:1;"/><path d="M753.5889,786.8846 L752.9781,789.5697 L754.2042,789.5697 Z M752.7979,785.6981 L754.3843,785.6981 L756.1553,792.2591 L754.8589,792.2591 L754.4546,790.6375 L752.7188,790.6375 L752.3233,792.2591 L751.0269,792.2591 Z " fill="#000000"/><text fill="#000000" font-family="Verdana" font-size="9" font-style="italic" lengthAdjust="spacing" textLength="92.2588" x="768.1079" y="787.5387">&#171;P6: Abstract Base&#187;</text><text fill="#000000" font-family="'Segoe UI'" font-size="9" font-style="italic" lengthAdjust="spacing" textLength="25.1851" x="801.6447" y="798.1295">Route</text><line style="stroke:#000000;stroke-width:1;" x1="721.49" x2="880.5086" y1="805.0279" y2="805.0279"/><text fill="#000000" font-family="'Segoe UI'" font-size="9" lengthAdjust="spacing" textLength="91.8062" x="726.49" y="817.7291">+model: RouteModel</text><line style="stroke:#000000;stroke-width:1;" x1="721.49" x2="880.5086" y1="823.6275" y2="823.6275"/><text fill="#000000" font-family="'Segoe UI'" font-size="9" lengthAdjust="spacing" textLength="63.1406" x="726.49" y="836.3287">+constructor()</text><text fill="#000000" font-family="'Segoe UI'" font-size="9" font-style="italic" lengthAdjust="spacing" textLength="89.376" x="726.49" y="846.9283">+init(scenario?): this</text><text fill="#000000" font-family="'Segoe UI'" font-size="9" font-style="italic" lengthAdjust="spacing" textLength="149.0186" x="726.49" y="857.5279">+handle(req, res): Promise&lt;void&gt;</text><text fill="#000000" font-family="'Segoe UI'" font-size="9" lengthAdjust="spacing" textLength="148.9746" x="726.49" y="868.1275">+matches(path, method): boolean</text><text fill="#000000" font-family="'Segoe UI'" font-size="9" lengthAdjust="spacing" textLength="92.6279" x="726.49" y="878.7271">+get pattern(): string</text><text fill="#000000" font-family="'Segoe UI'" font-size="9" lengthAdjust="spacing" textLength="131.4668" x="726.49" y="889.3267">+get methods(): HttpMethod[]</text></g><!--class ER--><g class="entity" data-qualified-name="L2.ER" data-source-line="83" id="ent0011"><rect fill="#FFFFFF" height="58.1372" rx="2.5" ry="2.5" style="stroke:#000000;stroke-width:1;" width="161.0186" x="132.49" y="629.9203"/><ellipse cx="154.6566" cy="645.6891" fill="#FFFFFF" rx="9" ry="9" style="stroke:#000000;stroke-width:1;"/><path d="M156.407,648.5001 Q156.0994,648.6583 155.761,648.7375 Q155.4227,648.8166 155.0491,648.8166 Q153.722,648.8166 153.0233,647.942 Q152.3245,647.0675 152.3245,645.4152 Q152.3245,643.7584 153.0233,642.8839 Q153.722,642.0094 155.0491,642.0094 Q155.4227,642.0094 155.7654,642.0885 Q156.1082,642.1676 156.407,642.3258 L156.407,643.7672 Q156.0731,643.4596 155.7588,643.3168 Q155.4446,643.174 155.1107,643.174 Q154.3987,643.174 154.0362,643.7387 Q153.6736,644.3034 153.6736,645.4152 Q153.6736,646.5226 154.0362,647.0873 Q154.3987,647.652 155.1107,647.652 Q155.4446,647.652 155.7588,647.5092 Q156.0731,647.3664 156.407,647.0587 Z " fill="#000000"/><text fill="#000000" font-family="Verdana" font-size="9" font-style="italic" lengthAdjust="spacing" textLength="116.6484" x="166.6936" y="643.9687">&#171;P4b: Polymorphic Error&#187;</text><text fill="#000000" font-family="'Segoe UI'" font-size="9" lengthAdjust="spacing" textLength="46.6392" x="201.6982" y="654.5595">ErrorRoute</text><line style="stroke:#000000;stroke-width:1;" x1="133.49" x2="292.5086" y1="661.4579" y2="661.4579"/><line style="stroke:#000000;stroke-width:1;" x1="133.49" x2="292.5086" y1="669.4579" y2="669.4579"/><text fill="#000000" font-family="'Segoe UI'" font-size="9" lengthAdjust="spacing" textLength="149.0186" x="138.49" y="682.1591">+handle(req, res): Promise&lt;void&gt;</text></g><!--class HtR--><g class="entity" data-qualified-name="L2.HtR" data-source-line="87" id="ent0012"><rect fill="#FFFFFF" height="58.1372" rx="2.5" ry="2.5" style="stroke:#000000;stroke-width:1;" width="161.0186" x="328.49" y="629.9203"/><ellipse cx="360.3445" cy="645.6891" fill="#FFFFFF" rx="9" ry="9" style="stroke:#000000;stroke-width:1;"/><path d="M362.095,648.5001 Q361.7874,648.6583 361.449,648.7375 Q361.1106,648.8166 360.7371,648.8166 Q359.4099,648.8166 358.7112,647.942 Q358.0125,647.0675 358.0125,645.4152 Q358.0125,643.7584 358.7112,642.8839 Q359.4099,642.0094 360.7371,642.0094 Q361.1106,642.0094 361.4534,642.0885 Q361.7962,642.1676 362.095,642.3258 L362.095,643.7672 Q361.761,643.4596 361.4468,643.3168 Q361.1326,643.174 360.7986,643.174 Q360.0867,643.174 359.7242,643.7387 Q359.3616,644.3034 359.3616,645.4152 Q359.3616,646.5226 359.7242,647.0873 Q360.0867,647.652 360.7986,647.652 Q361.1326,647.652 361.4468,647.5092 Q361.761,647.3664 362.095,647.0587 Z " fill="#000000"/><text fill="#000000" font-family="Verdana" font-size="9" font-style="italic" lengthAdjust="spacing" textLength="95.1196" x="374.5344" y="643.9687">&#171;Static HTML Pages&#187;</text><text fill="#000000" font-family="'Segoe UI'" font-size="9" lengthAdjust="spacing" textLength="50.0405" x="397.074" y="654.5595">HTMLRoute</text><line style="stroke:#000000;stroke-width:1;" x1="329.49" x2="488.5086" y1="661.4579" y2="661.4579"/><line style="stroke:#000000;stroke-width:1;" x1="329.49" x2="488.5086" y1="669.4579" y2="669.4579"/><text fill="#000000" font-family="'Segoe UI'" font-size="9" lengthAdjust="spacing" textLength="149.0186" x="334.49" y="682.1591">+handle(req, res): Promise&lt;void&gt;</text></g><!--class IR--><g class="entity" data-qualified-name="L2.IR" data-source-line="91" id="ent0013"><rect fill="#FFFFFF" height="58.1372" rx="2.5" ry="2.5" style="stroke:#000000;stroke-width:1;" width="163.9702" x="1308.01" y="629.9203"/><ellipse cx="1321.01" cy="645.6891" fill="#FFFFFF" rx="9" ry="9" style="stroke:#000000;stroke-width:1;"/><path d="M1322.7605,648.5001 Q1322.4529,648.6583 1322.1145,648.7375 Q1321.7761,648.8166 1321.4026,648.8166 Q1320.0754,648.8166 1319.3767,647.942 Q1318.678,647.0675 1318.678,645.4152 Q1318.678,643.7584 1319.3767,642.8839 Q1320.0754,642.0094 1321.4026,642.0094 Q1321.7761,642.0094 1322.1189,642.0885 Q1322.4617,642.1676 1322.7605,642.3258 L1322.7605,643.7672 Q1322.4265,643.4596 1322.1123,643.3168 Q1321.7981,643.174 1321.4641,643.174 Q1320.7522,643.174 1320.3896,643.7387 Q1320.0271,644.3034 1320.0271,645.4152 Q1320.0271,646.5226 1320.3896,647.0873 Q1320.7522,647.652 1321.4641,647.652 Q1321.7981,647.652 1322.1123,647.5092 Q1322.4265,647.3664 1322.7605,647.0587 Z " fill="#000000"/><text fill="#000000" font-family="Verdana" font-size="9" font-style="italic" lengthAdjust="spacing" textLength="139.9702" x="1331.01" y="643.9687">&#171;P12: IOR Method Invocation&#187;</text><text fill="#000000" font-family="'Segoe UI'" font-size="9" lengthAdjust="spacing" textLength="40.4604" x="1380.7649" y="654.5595">IORRoute</text><line style="stroke:#000000;stroke-width:1;" x1="1309.01" x2="1470.9802" y1="661.4579" y2="661.4579"/><line style="stroke:#000000;stroke-width:1;" x1="1309.01" x2="1470.9802" y1="669.4579" y2="669.4579"/><text fill="#000000" font-family="'Segoe UI'" font-size="9" lengthAdjust="spacing" textLength="149.0186" x="1314.01" y="682.1591">+handle(req, res): Promise&lt;void&gt;</text></g><!--class ScR--><g class="entity" data-qualified-name="L2.ScR" data-source-line="95" id="ent0014"><rect fill="#FFFFFF" height="58.1372" rx="2.5" ry="2.5" style="stroke:#000000;stroke-width:1;" width="161.0186" x="524.49" y="629.9203"/><ellipse cx="540.1564" cy="645.6891" fill="#FFFFFF" rx="9" ry="9" style="stroke:#000000;stroke-width:1;"/><path d="M541.9069,648.5001 Q541.5993,648.6583 541.2609,648.7375 Q540.9225,648.8166 540.549,648.8166 Q539.2218,648.8166 538.5231,647.942 Q537.8244,647.0675 537.8244,645.4152 Q537.8244,643.7584 538.5231,642.8839 Q539.2218,642.0094 540.549,642.0094 Q540.9225,642.0094 541.2653,642.0885 Q541.608,642.1676 541.9069,642.3258 L541.9069,643.7672 Q541.5729,643.4596 541.2587,643.3168 Q540.9445,643.174 540.6105,643.174 Q539.8986,643.174 539.536,643.7387 Q539.1735,644.3034 539.1735,645.4152 Q539.1735,646.5226 539.536,647.0873 Q539.8986,647.652 540.6105,647.652 Q540.9445,647.652 541.2587,647.5092 Q541.5729,647.3664 541.9069,647.0587 Z " fill="#000000"/><text fill="#000000" font-family="Verdana" font-size="9" font-style="italic" lengthAdjust="spacing" textLength="131.0933" x="550.7489" y="643.9687">&#171;P1: Everything is Scenario&#187;</text><text fill="#000000" font-family="'Segoe UI'" font-size="9" lengthAdjust="spacing" textLength="62.0244" x="585.2833" y="654.5595">ScenarioRoute</text><line style="stroke:#000000;stroke-width:1;" x1="525.49" x2="684.5086" y1="661.4579" y2="661.4579"/><line style="stroke:#000000;stroke-width:1;" x1="525.49" x2="684.5086" y1="669.4579" y2="669.4579"/><text fill="#000000" font-family="'Segoe UI'" font-size="9" lengthAdjust="spacing" textLength="149.0186" x="530.49" y="682.1591">+handle(req, res): Promise&lt;void&gt;</text></g><!--class MR--><g class="entity" data-qualified-name="L2.MR" data-source-line="99" id="ent0015"><rect fill="#FFFFFF" height="54.5996" rx="2.5" ry="2.5" style="stroke:#000000;stroke-width:1;" width="161.0186" x="720.49" y="631.6903"/><ellipse cx="766.0635" cy="645.6903" fill="#FFFFFF" rx="9" ry="9" style="stroke:#000000;stroke-width:1;"/><path d="M767.814,648.5013 Q767.5064,648.6596 767.168,648.7387 Q766.8296,648.8178 766.4561,648.8178 Q765.1289,648.8178 764.4302,647.9432 Q763.7315,647.0687 763.7315,645.4164 Q763.7315,643.7596 764.4302,642.8851 Q765.1289,642.0106 766.4561,642.0106 Q766.8296,642.0106 767.1724,642.0897 Q767.5151,642.1688 767.814,642.327 L767.814,643.7684 Q767.48,643.4608 767.1658,643.318 Q766.8516,643.1752 766.5176,643.1752 Q765.8057,643.1752 765.4431,643.7399 Q765.0806,644.3046 765.0806,645.4164 Q765.0806,646.5238 765.4431,647.0885 Q765.8057,647.6532 766.5176,647.6532 Q766.8516,647.6532 767.1658,647.5104 Q767.48,647.3676 767.814,647.0599 Z " fill="#000000"/><text fill="#000000" font-family="'Segoe UI'" font-size="9" lengthAdjust="spacing" textLength="62.3716" x="783.5635" y="649.0917">ManifestRoute</text><line style="stroke:#000000;stroke-width:1;" x1="721.49" x2="880.5086" y1="659.6903" y2="659.6903"/><line style="stroke:#000000;stroke-width:1;" x1="721.49" x2="880.5086" y1="667.6903" y2="667.6903"/><text fill="#000000" font-family="'Segoe UI'" font-size="9" lengthAdjust="spacing" textLength="149.0186" x="726.49" y="680.3915">+handle(req, res): Promise&lt;void&gt;</text></g><!--class SWR--><g class="entity" data-qualified-name="L2.SWR" data-source-line="103" id="ent0016"><rect fill="#FFFFFF" height="58.1372" rx="2.5" ry="2.5" style="stroke:#000000;stroke-width:1;" width="161.0186" x="916.49" y="629.9203"/><ellipse cx="950.4324" cy="645.6891" fill="#FFFFFF" rx="9" ry="9" style="stroke:#000000;stroke-width:1;"/><path d="M952.1828,648.5001 Q951.8752,648.6583 951.5369,648.7375 Q951.1985,648.8166 950.8249,648.8166 Q949.4978,648.8166 948.7991,647.942 Q948.1003,647.0675 948.1003,645.4152 Q948.1003,643.7584 948.7991,642.8839 Q949.4978,642.0094 950.8249,642.0094 Q951.1985,642.0094 951.5412,642.0885 Q951.884,642.1676 952.1828,642.3258 L952.1828,643.7672 Q951.8489,643.4596 951.5347,643.3168 Q951.2204,643.174 950.8865,643.174 Q950.1745,643.174 949.812,643.7387 Q949.4494,644.3034 949.4494,645.4152 Q949.4494,646.5226 949.812,647.0873 Q950.1745,647.652 950.8865,647.652 Q951.2204,647.652 951.5347,647.5092 Q951.8489,647.3664 952.1828,647.0587 Z " fill="#000000"/><text fill="#000000" font-family="Verdana" font-size="9" font-style="italic" lengthAdjust="spacing" textLength="32.0845" x="994.284" y="643.9687">&#171;PWA&#187;</text><text fill="#000000" font-family="'Segoe UI'" font-size="9" lengthAdjust="spacing" textLength="86.48" x="967.0862" y="654.5595">ServiceWorkerRoute</text><line style="stroke:#000000;stroke-width:1;" x1="917.49" x2="1076.5086" y1="661.4579" y2="661.4579"/><line style="stroke:#000000;stroke-width:1;" x1="917.49" x2="1076.5086" y1="669.4579" y2="669.4579"/><text fill="#000000" font-family="'Segoe UI'" font-size="9" lengthAdjust="spacing" textLength="149.0186" x="922.49" y="682.1591">+handle(req, res): Promise&lt;void&gt;</text></g><!--class UR--><g class="entity" data-qualified-name="L2.UR" data-source-line="107" id="ent0017"><rect fill="#FFFFFF" height="54.5996" rx="2.5" ry="2.5" style="stroke:#000000;stroke-width:1;" width="161.0186" x="1112.49" y="631.6903"/><ellipse cx="1165.4683" cy="645.6903" fill="#FFFFFF" rx="9" ry="9" style="stroke:#000000;stroke-width:1;"/><path d="M1167.2188,648.5013 Q1166.9111,648.6596 1166.5728,648.7387 Q1166.2344,648.8178 1165.8608,648.8178 Q1164.5337,648.8178 1163.835,647.9432 Q1163.1362,647.0687 1163.1362,645.4164 Q1163.1362,643.7596 1163.835,642.8851 Q1164.5337,642.0106 1165.8608,642.0106 Q1166.2344,642.0106 1166.5772,642.0897 Q1166.9199,642.1688 1167.2188,642.327 L1167.2188,643.7684 Q1166.8848,643.4608 1166.5706,643.318 Q1166.2564,643.1752 1165.9224,643.1752 Q1165.2105,643.1752 1164.8479,643.7399 Q1164.4854,644.3046 1164.4854,645.4164 Q1164.4854,646.5238 1164.8479,647.0885 Q1165.2105,647.6532 1165.9224,647.6532 Q1166.2564,647.6532 1166.5706,647.5104 Q1166.8848,647.3676 1167.2188,647.0599 Z " fill="#000000"/><text fill="#000000" font-family="'Segoe UI'" font-size="9" lengthAdjust="spacing" textLength="47.562" x="1182.9683" y="649.0917">UnitsRoute</text><line style="stroke:#000000;stroke-width:1;" x1="1113.49" x2="1272.5086" y1="659.6903" y2="659.6903"/><line style="stroke:#000000;stroke-width:1;" x1="1113.49" x2="1272.5086" y1="667.6903" y2="667.6903"/><text fill="#000000" font-family="'Segoe UI'" font-size="9" lengthAdjust="spacing" textLength="149.0186" x="1118.49" y="680.3915">+handle(req, res): Promise&lt;void&gt;</text></g><!--class PM--><g class="entity" data-qualified-name="L2.PM" data-source-line="111" id="ent0018"><rect fill="#FFFFFF" height="142.9341" rx="2.5" ry="2.5" style="stroke:#000000;stroke-width:1;" width="263.1343" x="943.43" y="391.3503"/><ellipse cx="1043.678" cy="407.1191" fill="#FFFFFF" rx="9" ry="9" style="stroke:#000000;stroke-width:1;"/><path d="M1045.4285,409.9301 Q1045.1209,410.0883 1044.7825,410.1675 Q1044.4442,410.2466 1044.0706,410.2466 Q1042.7435,410.2466 1042.0447,409.372 Q1041.346,408.4975 1041.346,406.8452 Q1041.346,405.1884 1042.0447,404.3139 Q1042.7435,403.4394 1044.0706,403.4394 Q1044.4442,403.4394 1044.7869,403.5185 Q1045.1297,403.5976 1045.4285,403.7558 L1045.4285,405.1972 Q1045.0946,404.8896 1044.7803,404.7468 Q1044.4661,404.604 1044.1321,404.604 Q1043.4202,404.604 1043.0577,405.1687 Q1042.6951,405.7334 1042.6951,406.8452 Q1042.6951,407.9526 1043.0577,408.5173 Q1043.4202,409.082 1044.1321,409.082 Q1044.4661,409.082 1044.7803,408.9392 Q1045.0946,408.7964 1045.4285,408.4887 Z " fill="#000000"/><text fill="#000000" font-family="Verdana" font-size="9" font-style="italic" lengthAdjust="spacing" textLength="54.0483" x="1061.723" y="405.3987">&#171;Singleton&#187;</text><text fill="#000000" font-family="'Segoe UI'" font-size="9" lengthAdjust="spacing" textLength="55.1382" x="1061.178" y="415.9895">PortManager</text><line style="stroke:#000000;stroke-width:1;" x1="944.43" x2="1205.5643" y1="422.8879" y2="422.8879"/><text fill="#000000" font-family="'Segoe UI'" font-size="9" lengthAdjust="spacing" text-decoration="underline" textLength="102.3618" x="949.43" y="435.5891">-instance: PortManager</text><text fill="#000000" font-family="'Segoe UI'" font-size="9" lengthAdjust="spacing" textLength="107.6704" x="949.43" y="446.1887">+PRIMARY_PORT: 42777</text><text fill="#000000" font-family="'Segoe UI'" font-size="9" lengthAdjust="spacing" textLength="140.2119" x="949.43" y="456.7883">+FALLBACK_PORT_START: 8080</text><line style="stroke:#000000;stroke-width:1;" x1="944.43" x2="1205.5643" y1="462.6867" y2="462.6867"/><text fill="#000000" font-family="'Segoe UI'" font-size="9" lengthAdjust="spacing" text-decoration="underline" textLength="124.1455" x="949.43" y="475.3879">+getInstance(): PortManager</text><text fill="#000000" font-family="'Segoe UI'" font-size="9" lengthAdjust="spacing" textLength="184.9702" x="949.43" y="485.9875">+isPortAvailable(port): Promise&lt;boolean&gt;</text><text fill="#000000" font-family="'Segoe UI'" font-size="9" lengthAdjust="spacing" textLength="251.1343" x="949.43" y="496.5871">+getNextAvailablePort(): Promise&lt;PortAvailabilityResult&gt;</text><text fill="#000000" font-family="'Segoe UI'" font-size="9" lengthAdjust="spacing" textLength="206.0464" x="949.43" y="507.1867">+isPrimaryServerRunning(): Promise&lt;boolean&gt;</text><text fill="#000000" font-family="'Segoe UI'" font-size="9" lengthAdjust="spacing" textLength="117.1978" x="949.43" y="517.7863">+getPrimaryPort(): number</text><text fill="#000000" font-family="'Segoe UI'" font-size="9" lengthAdjust="spacing" textLength="129.5947" x="949.43" y="528.386">+isPrimaryPort(port): boolean</text></g><!--class IORMR--><g class="entity" data-qualified-name="L4.IORMR" data-source-line="138" id="ent0031"><rect fill="#FFFFFF" height="79.3364" rx="2.5" ry="2.5" style="stroke:#000000;stroke-width:1;" width="177.1509" x="1528.42" y="794.6803"/><ellipse cx="1555.2318" cy="810.4491" fill="#FFFFFF" rx="9" ry="9" style="stroke:#000000;stroke-width:1;"/><path d="M1556.9823,813.2601 Q1556.6747,813.4183 1556.3363,813.4975 Q1555.9979,813.5766 1555.6244,813.5766 Q1554.2972,813.5766 1553.5985,812.702 Q1552.8998,811.8275 1552.8998,810.1752 Q1552.8998,808.5184 1553.5985,807.6439 Q1554.2972,806.7694 1555.6244,806.7694 Q1555.9979,806.7694 1556.3407,806.8485 Q1556.6835,806.9276 1556.9823,807.0858 L1556.9823,808.5272 Q1556.6483,808.2196 1556.3341,808.0768 Q1556.0199,807.934 1555.6859,807.934 Q1554.974,807.934 1554.6114,808.4987 Q1554.2489,809.0634 1554.2489,810.1752 Q1554.2489,811.2826 1554.6114,811.8473 Q1554.974,812.412 1555.6859,812.412 Q1556.0199,812.412 1556.3341,812.2692 Q1556.6483,812.1264 1556.9823,811.8187 Z " fill="#000000"/><text fill="#000000" font-family="Verdana" font-size="9" font-style="italic" lengthAdjust="spacing" textLength="122.458" x="1568.3011" y="808.7287">&#171;P12: IOR URL &#8594; Method&#187;</text><text fill="#000000" font-family="'Segoe UI'" font-size="9" lengthAdjust="spacing" textLength="77.0537" x="1591.0032" y="819.3195">IORMethodRouter</text><line style="stroke:#000000;stroke-width:1;" x1="1529.42" x2="1704.5709" y1="826.2179" y2="826.2179"/><text fill="#000000" font-family="'Segoe UI'" font-size="9" lengthAdjust="spacing" textLength="95.0186" x="1534.42" y="838.9191">+model: {uuid, name}</text><line style="stroke:#000000;stroke-width:1;" x1="1529.42" x2="1704.5709" y1="844.8175" y2="844.8175"/><text fill="#000000" font-family="'Segoe UI'" font-size="9" lengthAdjust="spacing" textLength="156.4937" x="1534.42" y="857.5187">+parseRequest(req): IORMethodCall</text><text fill="#000000" font-family="'Segoe UI'" font-size="9" lengthAdjust="spacing" textLength="165.1509" x="1534.42" y="868.1183">+routeToMethod(call): Promise&lt;any&gt;</text></g><g class="entity" data-qualified-name="GMN33" data-source-line="148" id="ent0034"><path d="M1788.04,802.8503 L1788.04,865.8484 L1955.9536,865.8484 L1955.9536,812.8503 L1945.9536,802.8503 L1788.04,802.8503" fill="#FFFFFF" style="stroke:#000000;stroke-width:1;"/><path d="M1945.9536,802.8503 L1945.9536,812.8503 L1955.9536,812.8503 L1945.9536,802.8503" fill="#FFFFFF" style="stroke:#000000;stroke-width:1;"/><text fill="#000000" font-family="'Segoe UI'" font-size="9" font-weight="bold" lengthAdjust="spacing" textLength="116.2793" x="1794.04" y="816.5515">7 Route Subclasses (P4b)</text><text fill="#000000" font-family="'Segoe UI'" font-size="9" lengthAdjust="spacing" textLength="138.8188" x="1794.04" y="827.1511">Each route type handles its own</text><text fill="#000000" font-family="'Segoe UI'" font-size="9" lengthAdjust="spacing" textLength="146.9136" x="1794.04" y="837.7507">response format polymorphically.</text><text fill="#000000" font-family="'Segoe UI'" font-size="9" lengthAdjust="spacing" textLength="121.21" x="1794.04" y="848.3503">No switch/case in Router &#8212;</text><text fill="#000000" font-family="'Segoe UI'" font-size="9" lengthAdjust="spacing" textLength="116.6133" x="1794.04" y="858.9499">just route.handle(req, res).</text></g><g class="entity" data-qualified-name="GMN36" data-source-line="156" id="ent0037"><path d="M1506.59,627.4903 L1506.59,627.4903 L1206.95,514.4603 L1506.59,635.4903 L1506.59,690.4884 A0,0 0 0 0 1506.59,690.4884 L1655.4181,690.4884 A0,0 0 0 0 1655.4181,690.4884 L1655.4181,637.4903 L1645.4181,627.4903 L1506.59,627.4903 A0,0 0 0 0 1506.59,627.4903" fill="#FFFFFF" style="stroke:#000000;stroke-width:1;"/><path d="M1645.4181,627.4903 L1645.4181,637.4903 L1655.4181,637.4903 L1645.4181,627.4903" fill="#FFFFFF" style="stroke:#000000;stroke-width:1;"/><text fill="#000000" font-family="'Segoe UI'" font-size="9" font-weight="bold" lengthAdjust="spacing" textLength="66.6167" x="1512.59" y="641.1915">Port Hierarchy</text><text fill="#000000" font-family="'Segoe UI'" font-size="9" lengthAdjust="spacing" textLength="102.6035" x="1512.59" y="651.7911">42777 = ONCE primary</text><text fill="#000000" font-family="'Segoe UI'" font-size="9" lengthAdjust="spacing" textLength="99.356" x="1512.59" y="662.3907">8080+ = fallback scan</text><text fill="#000000" font-family="'Segoe UI'" font-size="9" lengthAdjust="spacing" textLength="127.8281" x="1512.59" y="672.9903">Primary server gets discovery</text><text fill="#000000" font-family="'Segoe UI'" font-size="9" lengthAdjust="spacing" textLength="110.9751" x="1512.59" y="683.5899">port for P2P peer finding.</text></g><!--link ER to R--><g class="link" data-entity-1="ent0011" data-entity-2="ent0010" data-link-type="extension" data-source-line="123" id="lnk19"><path codeLine="123" d="M293.98,685.3103 C299.74,687.0803 305.46,688.8103 311,690.4903 C454.81,733.8203 605.6876,777.4377 702.9276,805.3277" fill="none" id="ER-to-R" style="stroke:#000000;stroke-width:1;"/><polygon fill="none" points="720.23,810.2903,704.5818,799.5602,701.2734,811.0952,720.23,810.2903" style="stroke:#000000;stroke-width:1;"/></g><!--link HtR to R--><g class="link" data-entity-1="ent0012" data-entity-2="ent0010" data-link-type="extension" data-source-line="124" id="lnk20"><path codeLine="124" d="M473.29,688.4203 C540.73,718.2503 630.4382,757.9195 703.5582,790.2595" fill="none" id="HtR-to-R" style="stroke:#000000;stroke-width:1;"/><polygon fill="none" points="720.02,797.5403,705.9852,784.7722,701.1313,795.7467,720.02,797.5403" style="stroke:#000000;stroke-width:1;"/></g><!--link IR to R--><g class="link" data-entity-1="ent0013" data-entity-2="ent0010" data-link-type="extension" data-source-line="125" id="lnk21"><path codeLine="125" d="M1307.65,685.4603 C1302.02,687.1703 1296.43,688.8603 1291,690.4903 C1147.13,733.6203 996.2587,777.2848 899.0487,805.2448" fill="none" id="IR-to-R" style="stroke:#000000;stroke-width:1;"/><polygon fill="none" points="881.75,810.2203,900.7072,811.011,897.3902,799.4786,881.75,810.2203" style="stroke:#000000;stroke-width:1;"/></g><!--link ScR to R--><g class="link" data-entity-1="ent0014" data-entity-2="ent0010" data-link-type="extension" data-source-line="126" id="lnk22"><path codeLine="126" d="M636.93,688.2303 C662.85,711.1603 686.8481,732.3739 719.4381,761.2039" fill="none" id="ScR-to-R" style="stroke:#000000;stroke-width:1;"/><polygon fill="none" points="732.92,773.1303,723.4136,756.7099,715.4627,765.6978,732.92,773.1303" style="stroke:#000000;stroke-width:1;"/></g><!--link MR to R--><g class="link" data-entity-1="ent0015" data-entity-2="ent0010" data-link-type="extension" data-source-line="127" id="lnk23"><path codeLine="127" d="M801,686.6903 C801,709.6803 801,725.7003 801,755.1903" fill="none" id="MR-to-R" style="stroke:#000000;stroke-width:1;"/><polygon fill="none" points="801,773.1903,807,755.1903,795,755.1903,801,773.1903" style="stroke:#000000;stroke-width:1;"/></g><!--link SWR to R--><g class="link" data-entity-1="ent0016" data-entity-2="ent0010" data-link-type="extension" data-source-line="128" id="lnk24"><path codeLine="128" d="M965.07,688.2303 C939.15,711.1603 915.1519,732.3739 882.5619,761.2039" fill="none" id="SWR-to-R" style="stroke:#000000;stroke-width:1;"/><polygon fill="none" points="869.08,773.1303,886.5373,765.6978,878.5864,756.7099,869.08,773.1303" style="stroke:#000000;stroke-width:1;"/></g><!--link UR to R--><g class="link" data-entity-1="ent0017" data-entity-2="ent0010" data-link-type="extension" data-source-line="129" id="lnk25"><path codeLine="129" d="M1132.61,686.6903 C1065.39,716.4203 972.892,757.33 898.342,790.3" fill="none" id="UR-to-R" style="stroke:#000000;stroke-width:1;"/><polygon fill="none" points="881.88,797.5803,900.7688,795.7873,895.9152,784.8126,881.88,797.5803" style="stroke:#000000;stroke-width:1;"/></g><!--link HS to HR--><g class="link" data-entity-1="ent0008" data-entity-2="ent0009" data-link-type="dependency" data-source-line="131" id="lnk26"><path codeLine="131" d="M319.3,298.3103 C304.15,321.6103 291.1512,341.6205 275.9912,364.9305" fill="none" id="HS-to-HR" style="stroke:#000000;stroke-width:1;"/><polygon fill="#000000" points="272.72,369.9603,280.98,364.5964,275.446,365.7688,274.2736,360.2348,272.72,369.9603" style="stroke:#000000;stroke-width:1;"/><text fill="#000000" font-family="'Segoe UI'" font-size="9" lengthAdjust="spacing" textLength="26.8594" x="297" y="337.8515">router</text></g><!--link HR to R--><g class="link" data-entity-1="ent0009" data-entity-2="ent0010" data-link-type="dependency" data-source-line="132" id="lnk27"><path codeLine="132" d="M107.51,555.7903 C70.78,598.7803 46.26,649.4103 80,690.4903 C160.33,788.3003 543.1191,819.9791 714.0691,829.4291" fill="none" id="HR-to-R" style="stroke:#000000;stroke-width:1;"/><polygon fill="#000000" points="720.06,829.7603,711.2945,825.2697,715.0676,829.4843,710.8529,833.2575,720.06,829.7603" style="stroke:#000000;stroke-width:1;"/><text fill="#000000" font-family="'Segoe UI'" font-size="9" lengthAdjust="spacing" textLength="33.6182" x="81" y="662.6915">routes[]</text></g><!--link HR to ER--><g class="link" data-entity-1="ent0009" data-entity-2="ent0011" data-link-type="dependency" data-source-line="133" id="lnk28"><path codeLine="133" d="M213,555.7903 C213,582.6403 213,604.0203 213,623.6803" fill="none" id="HR-to-ER" style="stroke:#000000;stroke-width:1;"/><polygon fill="#000000" points="213,629.6803,217,620.6803,213,624.6803,209,620.6803,213,629.6803" style="stroke:#000000;stroke-width:1;"/><text fill="#000000" font-family="'Segoe UI'" font-size="9" lengthAdjust="spacing" textLength="46.7754" x="214" y="595.1915">errorRoute</text></g><!--link HS to PM--><g class="link" data-entity-1="ent0008" data-entity-2="ent0018" data-link-type="dependency" data-source-line="134" id="lnk29"><path codeLine="134" d="M466.09,238.4403 C586.1,282.4603 797.667,360.084 937.597,411.414" fill="none" id="HS-to-PM" style="stroke:#000000;stroke-width:1;stroke-dasharray:7,7;"/><polygon fill="#000000" points="943.23,413.4803,936.1581,406.6255,938.5359,411.7584,933.403,414.1361,943.23,413.4803" style="stroke:#000000;stroke-width:1;"/><text fill="#000000" font-family="'Segoe UI'" font-size="9" lengthAdjust="spacing" textLength="62.1387" x="728" y="337.8515">port discovery</text></g><!--link IR to IORMR--><g class="link" data-entity-1="ent0013" data-entity-2="ent0031" data-link-type="dependency" data-source-line="144" id="lnk32"><path codeLine="144" d="M1427.23,688.4203 C1464.96,717.2403 1518.8621,758.3979 1560.9721,790.5679" fill="none" id="IR-to-IORMR" style="stroke:#000000;stroke-width:1;"/><polygon fill="#000000" points="1565.74,794.2103,1561.0165,785.5681,1561.7668,791.175,1556.1599,791.9253,1565.74,794.2103" style="stroke:#000000;stroke-width:1;"/><text fill="#000000" font-family="'Segoe UI'" font-size="9" lengthAdjust="spacing" textLength="41.8447" x="1511.9678" y="730.1915">delegates</text><text fill="#000000" font-family="'Segoe UI'" font-size="9" lengthAdjust="spacing" textLength="70.4004" x="1497.69" y="740.7911">IOR URL parsing</text></g><!--link R to GMN33--><g class="link" data-entity-1="ent0010" data-entity-2="ent0034" data-link-type="association" data-source-line="148" id="lnk35"><path d="M881.71,802.9303 C1041.97,745.2103 1410.27,635.9303 1704.5,724.0803 C1755.53,739.3703 1805.39,775.7703 1837.25,802.5903" fill="none" id="R-GMN33" style="stroke:#000000;stroke-width:1;stroke-dasharray:7,7;"/></g><?plantuml-src hLVhRY8t5FxFKvncfOfa4pObsSqkIcdPB2ce44OpeAZgLiWC1jmCzgnjialJIFtL1wZwXFiaFRxCO7Bf9QhuWNtEiS_bEnVF5tf1bnJoZ31UKLUCvqII9Kn8UZMNOiMdPo8J4YuNJDE0FwKpiihqkU3wWk3vdOJE1OLHT-TXeOJzGk5Dm4ipebHBQyacAqsxgU1MvB1IqKnd5BxzI2V7druijCxXi7PKgn_L3k7pRtz2PpYC8A7ocaf8D9hvdh-ZEULJ1O8tYdEhDAzKSkIIEHhN8skKFhBdkrnJEICfLV0bn2kk6Pe_NETKxG1Hq3k2P-SlpGzkAW2ia8OTezZfxOifpQnqjvFqhHp0SyY5r0tWg-M4IazQ28KaXLxokISfJJHjG8_DQBfECvgOVS1ZIhDKDOnlVctLeSHjPTkWM63aGcFYZItIyF0MAsD5VlpfwKf27I9mc6YKutSSN5Az45Eyl8FOzUtcl-Yc640CTddMgkqKIhzh3-r_D4ZyOkJ-txLxxM7RaLh3iuvT3Q9XTt2Hs7MdtNfdTTpUIuowIunbdc4fS6EMu2uPwl2i_VhyPViDgiV3Dcd3J7369N1w6hr2zw8JZCMQfv2PU-lDPXcgfN6n0NToo38FG5aAWaLdL5AUqbCdq_Hy2wPqfntebZ4UHw-2H1gFlIwi9GHabMeXgxkUnZZJLPLIJYGJt-msG2-OyZmj4i-e8gDOUnM-qWOvbJOkgbI3M4fjJaHIB9cYf-RAPiaK-MCyvqv2TVM-OtZaMh2fbvnJ3KnXaN9CBtFTH8YC4XwmJT4PJbbsjtU0SlSwe683LBq1Pu9V8z3e3WZZ7UvdR7uVhg32GYWmUViaFtLPl--a2goeb49QIWFQvVf_n6iyDZUYulAyjIccSomcAbrClUdRqRIS4PU5f2_VVL-n3mZtYKuNLKa_x8R96VYB7OxmQKQDp3v8gWB8pMM5b8rAPrjqtr4VEM6mjJRqq5W3iDLg6ub5c4mmPYJL1TIMRL6s86EWMuN4MwBe8zXke7qOXfj2pUtVLb0Wzk_YiJI1fSf0i0ZY_q1wEunC0BQQhE7vHcjuTrfjM0ER9BJHQTlm74_GBf6jbqBc2vQwJ0rYzCzUR9TPlxVHqD56XUtkAHWMHDXhrPDlxmxYpULTQ_vNMCD81kSoZlHhaThkz6GbHTVRQ4fIfmhB65l46j7cSsn6PNzyige-uTW2bDwewiTFjHgRCqlffP1NDC0ukRIcNxQUREC8arrjBXmzrS08kpFwY_Yx3XprJMfW93Eg0xGEuCQ-359JPhZ2BcFoipphTKTnjz-AVnX7WtZOWEFwoSc9vvotUhsthRFlBMkS35j6uFNXwyEYG8lhiMwwNeCTJ_TqC6LehMl2CZ91Hyry2Ppq5HfqgGlwQICUYUsH6Dp5CgRNCLNu86vkT4cs97BjXcmmvnvNvqz4TyVUrdsMwotVz1GB3DR_mS6lJOXnRIgrt7I3jSdzSjCF6PV1PbIkpLq9Rffcn3RyW3V4s19BchBToLFRXap34Obtr6fDaoGDEzTXobHg1lJwWKVRiNsqjUnpQo1DDzNkXG9LymmJF5jZnfMFiLtte3l6r_tv-L7xq6RUfiEuJXAy5GnjgzUCuXvy_lqFttFkpvERrOfDzu7Zrz1j-JwM2WVpXnNQvgTegUgCP5auQeV2qQifCe8C87nT5bNN1SwPri3FgupEyUD1lUU5WKQZ6H8epeMc8DbyeK7CB5vxUoTkwa6ocbZNyHkeYhDWTs_FP0P95yuMqFWvv2jT0NO241zD0c6zvpWaASo4n0c669KJ18rUrr3aGe3wo72ulKXnwc8r-pUK0GlPFw-K7-krkusaLi5lE31MUzidGcknDCP7VMkzoMheC7o88jnhQxFj0V0r32xEsf2xv4UogVpdI9wXMUPB5bHgAy2NXtzmct9IGOw1Ipfq3g9w13b5aHdZKmneODnV?></g></svg>